<svg width="28" height="19" viewBox="0 0 28 19" fill="none" xmlns="http://www.w3.org/2000/svg">
<path fill-rule="evenodd" clip-rule="evenodd" d="M28 9.00069C28 9.26589 27.8946 9.52023 27.7071 9.70775C27.5196 9.89528 27.2653 10.0006 27.0001 10.0006L3.41557 10.0006L9.70917 16.2922C9.89693 16.48 10.0024 16.7346 10.0024 17.0002C10.0024 17.2657 9.89693 17.5204 9.70917 17.7081C9.52141 17.8959 9.26675 18.0014 9.00121 18.0014C8.73568 18.0014 8.48102 17.8959 8.29326 17.7081L0.293768 9.70864C0.200647 9.61576 0.126768 9.50541 0.0763588 9.38393C0.0259495 9.26245 0 9.13221 0 9.00069C0 8.86916 0.0259495 8.73893 0.0763588 8.61745C0.126768 8.49596 0.200647 8.38562 0.293768 8.29273L8.29326 0.293244C8.48102 0.105483 8.73568 -6.25621e-09 9.00121 0C9.26675 6.2562e-09 9.52141 0.105483 9.70917 0.293244C9.89693 0.481006 10.0024 0.735665 10.0024 1.0012C10.0024 1.26673 9.89693 1.52139 9.70917 1.70915L3.41557 8.00075L27.0001 8.00075C27.2653 8.00075 27.5196 8.1061 27.7071 8.29363C27.8946 8.48115 28 8.73549 28 9.00069Z" fill="#6FAEAC"/>
</svg>
