<svg width="28" height="30" viewBox="0 0 28 30" fill="none" xmlns="http://www.w3.org/2000/svg">
<path d="M27.2383 24.0469C26.3483 23.2535 25.5691 22.3439 24.9217 21.3427C24.215 19.9606 23.7914 18.4514 23.6758 16.9034V12.3441C23.6819 9.9128 22.7999 7.5629 21.1956 5.73597C19.5913 3.90903 17.3751 2.73081 14.9633 2.42268V1.23211C14.9633 0.905332 14.8335 0.591941 14.6025 0.360876C14.3714 0.129811 14.058 0 13.7312 0C13.4044 0 13.0911 0.129811 12.86 0.360876C12.6289 0.591941 12.4991 0.905332 12.4991 1.23211V2.44114C10.109 2.77148 7.91952 3.95682 6.33629 5.77762C4.75307 7.59842 3.88334 9.93129 3.8882 12.3441V16.9034C3.77261 18.4514 3.34901 19.9606 2.64225 21.3427C2.00625 22.3416 1.23958 23.2511 0.362623 24.0469C0.264176 24.1334 0.185275 24.2398 0.131169 24.3592C0.0770637 24.4785 0.0489941 24.608 0.0488281 24.7391V25.9942C0.0488281 26.239 0.146065 26.4738 0.319147 26.6468C0.49223 26.8199 0.72698 26.9172 0.971755 26.9172H26.6291C26.8739 26.9172 27.1087 26.8199 27.2817 26.6468C27.4548 26.4738 27.5521 26.239 27.5521 25.9942V24.7391C27.5519 24.608 27.5238 24.4785 27.4697 24.3592C27.4156 24.2398 27.3367 24.1334 27.2383 24.0469ZM1.96852 25.0713C2.82722 24.2418 3.58327 23.3122 4.22046 22.3025C5.11072 20.6334 5.63017 18.7917 5.74329 16.9034V12.3441C5.70669 11.2625 5.88812 10.1846 6.27678 9.17451C6.66544 8.16445 7.25339 7.24293 8.00561 6.46483C8.75783 5.68672 9.65894 5.06795 10.6553 4.64534C11.6516 4.22274 12.7228 4.00496 13.8051 4.00496C14.8873 4.00496 15.9585 4.22274 16.9548 4.64534C17.9512 5.06795 18.8523 5.68672 19.6045 6.46483C20.3567 7.24293 20.9447 8.16445 21.3333 9.17451C21.722 10.1846 21.9034 11.2625 21.8668 12.3441V16.9034C21.9799 18.7917 22.4994 20.6334 23.3897 22.3025C24.0268 23.3122 24.7829 24.2418 25.6416 25.0713H1.96852Z" fill="#111111"/>
<path d="M13.8466 29.9997C14.428 29.9864 14.9859 29.7678 15.4217 29.3827C15.8574 28.9976 16.143 28.4708 16.2277 27.8955H11.3731C11.4603 28.4864 11.7592 29.0256 12.2142 29.4127C12.6692 29.7998 13.2493 30.0084 13.8466 29.9997Z" fill="#111111"/>
</svg>
