<svg width="25" height="24" viewBox="0 0 25 24" fill="none" xmlns="http://www.w3.org/2000/svg">
<path d="M17 9.75C17 9.55109 17.079 9.36032 17.2197 9.21967C17.3603 9.07902 17.5511 9 17.75 9H19.25C19.4489 9 19.6397 9.07902 19.7803 9.21967C19.921 9.36032 20 9.55109 20 9.75V11.25C20 11.4489 19.921 11.6397 19.7803 11.7803C19.6397 11.921 19.4489 12 19.25 12H17.75C17.5511 12 17.3603 11.921 17.2197 11.7803C17.079 11.6397 17 11.4489 17 11.25V9.75Z" fill="white"/>
<path d="M5.75 0C5.94891 0 6.13968 0.0790176 6.28033 0.21967C6.42098 0.360322 6.5 0.551088 6.5 0.75V1.5H18.5V0.75C18.5 0.551088 18.579 0.360322 18.7197 0.21967C18.8603 0.0790176 19.0511 0 19.25 0C19.4489 0 19.6397 0.0790176 19.7803 0.21967C19.921 0.360322 20 0.551088 20 0.75V1.5H21.5C22.2956 1.5 23.0587 1.81607 23.6213 2.37868C24.1839 2.94129 24.5 3.70435 24.5 4.5V21C24.5 21.7956 24.1839 22.5587 23.6213 23.1213C23.0587 23.6839 22.2956 24 21.5 24H3.5C2.70435 24 1.94129 23.6839 1.37868 23.1213C0.816071 22.5587 0.5 21.7956 0.5 21V4.5C0.5 3.70435 0.816071 2.94129 1.37868 2.37868C1.94129 1.81607 2.70435 1.5 3.5 1.5H5V0.75C5 0.551088 5.07902 0.360322 5.21967 0.21967C5.36032 0.0790176 5.55109 0 5.75 0ZM2 6V21C2 21.3978 2.15804 21.7794 2.43934 22.0607C2.72064 22.342 3.10218 22.5 3.5 22.5H21.5C21.8978 22.5 22.2794 22.342 22.5607 22.0607C22.842 21.7794 23 21.3978 23 21V6H2Z" fill="white"/>
</svg>
