<svg width="952" height="300" viewBox="0 0 952 300" fill="none" xmlns="http://www.w3.org/2000/svg">
<line x1="0.734375" y1="157.5" x2="765.734" y2="157.5" stroke="#88BCBA" stroke-width="2"/>
<line x1="0.734375" y1="257.5" x2="765.734" y2="257.5" stroke="#88BCBA" stroke-width="2"/>
<line y1="-1" x2="285" y2="-1" transform="matrix(-1 0 0 1 951.266 158.5)" stroke="#88BCBA" stroke-width="2" stroke-dasharray="10 10"/>
<line y1="-1" x2="285" y2="-1" transform="matrix(-1 0 0 1 951.266 258.5)" stroke="#88BCBA" stroke-width="2" stroke-dasharray="10 10"/>
<path d="M190.457 199.216H168.556C168.141 199.216 167.743 199.05 167.45 198.756C167.157 198.461 166.992 198.061 166.992 197.644V191.358C166.992 190.941 167.157 190.541 167.45 190.247C167.743 189.952 168.141 189.786 168.556 189.786H190.457C190.872 189.786 191.27 189.952 191.563 190.247C191.856 190.541 192.021 190.941 192.021 191.358V197.644C192.021 198.061 191.856 198.461 191.563 198.756C191.27 199.05 190.872 199.216 190.457 199.216ZM170.12 196.073H188.893V192.835H170.12V196.073Z" fill="black"/>
<path d="M190.457 202.485H168.556C168.141 202.485 167.743 202.65 167.45 202.945C167.157 203.24 166.992 203.64 166.992 204.056V210.217C166.992 210.634 167.157 211.034 167.45 211.328C167.743 211.623 168.141 211.789 168.556 211.789H186.327L192.021 205.974V204.056C192.021 203.64 191.856 203.24 191.563 202.945C191.27 202.65 190.872 202.485 190.457 202.485ZM188.893 208.645H170.12V205.502H188.893V208.645Z" fill="black"/>
<path d="M174.907 229.878V229.783L175.408 227.599H163.863V186.643H195.15V202.752L198.279 199.782V185.072C198.279 184.655 198.114 184.255 197.82 183.96C197.527 183.666 197.129 183.5 196.714 183.5H162.299C161.884 183.5 161.486 183.666 161.193 183.96C160.899 184.255 160.734 184.655 160.734 185.072V229.076C160.734 229.493 160.899 229.893 161.193 230.187C161.486 230.482 161.884 230.648 162.299 230.648H174.813C174.826 230.389 174.858 230.132 174.907 229.878Z" fill="black"/>
<path d="M192.021 210.484L190.801 211.726C191.104 211.663 191.381 211.512 191.598 211.291C191.816 211.07 191.963 210.789 192.021 210.484Z" fill="black"/>
<path d="M166.992 222.695C166.992 223.112 167.157 223.512 167.45 223.807C167.743 224.101 168.141 224.267 168.556 224.267H176.128L176.597 222.224L176.8 221.36V221.281H170.12V218.075H180.038L183.167 214.932H168.556C168.141 214.932 167.743 215.097 167.45 215.392C167.157 215.687 166.992 216.087 166.992 216.503V222.695Z" fill="black"/>
<path d="M209.996 206.555L204.724 201.259C204.49 201.023 204.212 200.836 203.906 200.709C203.6 200.581 203.272 200.515 202.94 200.515C202.609 200.515 202.281 200.581 201.975 200.709C201.669 200.836 201.391 201.023 201.157 201.259L179.71 222.931L177.942 230.49C177.876 230.817 177.874 231.153 177.938 231.479C178.001 231.806 178.128 232.117 178.311 232.394C178.494 232.672 178.73 232.91 179.005 233.096C179.28 233.281 179.588 233.411 179.913 233.476C180.074 233.493 180.237 233.493 180.398 233.476C180.59 233.508 180.785 233.508 180.977 233.476L188.564 231.795L209.996 210.217C210.23 209.983 210.416 209.705 210.542 209.399C210.669 209.093 210.734 208.765 210.734 208.433C210.734 208.102 210.669 207.773 210.542 207.467C210.416 207.161 210.23 206.883 209.996 206.649V206.555ZM186.968 228.935L181.243 230.208L182.635 224.503L198.717 208.174L203.128 212.606L186.968 228.935ZM204.896 210.83L200.484 206.398L202.972 203.931L207.414 208.394L204.896 210.83Z" fill="black"/>
<path d="M167.325 291.64C166.352 291.64 165.472 291.473 164.685 291.14C163.912 290.807 163.298 290.327 162.845 289.7C162.392 289.073 162.158 288.333 162.145 287.48H165.145C165.185 288.053 165.385 288.507 165.745 288.84C166.118 289.173 166.625 289.34 167.265 289.34C167.918 289.34 168.432 289.187 168.805 288.88C169.178 288.56 169.365 288.147 169.365 287.64C169.365 287.227 169.238 286.887 168.985 286.62C168.732 286.353 168.412 286.147 168.025 286C167.652 285.84 167.132 285.667 166.465 285.48C165.558 285.213 164.818 284.953 164.245 284.7C163.685 284.433 163.198 284.04 162.785 283.52C162.385 282.987 162.185 282.28 162.185 281.4C162.185 280.573 162.392 279.853 162.805 279.24C163.218 278.627 163.798 278.16 164.545 277.84C165.292 277.507 166.145 277.34 167.105 277.34C168.545 277.34 169.712 277.693 170.605 278.4C171.512 279.093 172.012 280.067 172.105 281.32H169.025C168.998 280.84 168.792 280.447 168.405 280.14C168.032 279.82 167.532 279.66 166.905 279.66C166.358 279.66 165.918 279.8 165.585 280.08C165.265 280.36 165.105 280.767 165.105 281.3C165.105 281.673 165.225 281.987 165.465 282.24C165.718 282.48 166.025 282.68 166.385 282.84C166.758 282.987 167.278 283.16 167.945 283.36C168.852 283.627 169.592 283.893 170.165 284.16C170.738 284.427 171.232 284.827 171.645 285.36C172.058 285.893 172.265 286.593 172.265 287.46C172.265 288.207 172.072 288.9 171.685 289.54C171.298 290.18 170.732 290.693 169.985 291.08C169.238 291.453 168.352 291.64 167.325 291.64ZM185.153 280.42V291.5H182.333V290.1C181.973 290.58 181.499 290.96 180.913 291.24C180.339 291.507 179.713 291.64 179.033 291.64C178.166 291.64 177.399 291.46 176.733 291.1C176.066 290.727 175.539 290.187 175.153 289.48C174.779 288.76 174.593 287.907 174.593 286.92V280.42H177.393V286.52C177.393 287.4 177.613 288.08 178.053 288.56C178.493 289.027 179.093 289.26 179.853 289.26C180.626 289.26 181.233 289.027 181.673 288.56C182.113 288.08 182.333 287.4 182.333 286.52V280.42H185.153ZM190.715 282.04C191.075 281.507 191.568 281.073 192.195 280.74C192.835 280.407 193.562 280.24 194.375 280.24C195.322 280.24 196.175 280.473 196.935 280.94C197.708 281.407 198.315 282.073 198.755 282.94C199.208 283.793 199.435 284.787 199.435 285.92C199.435 287.053 199.208 288.06 198.755 288.94C198.315 289.807 197.708 290.48 196.935 290.96C196.175 291.44 195.322 291.68 194.375 291.68C193.548 291.68 192.822 291.52 192.195 291.2C191.582 290.867 191.088 290.44 190.715 289.92V291.5H187.915V276.7H190.715V282.04ZM196.575 285.92C196.575 285.253 196.435 284.68 196.155 284.2C195.888 283.707 195.528 283.333 195.075 283.08C194.635 282.827 194.155 282.7 193.635 282.7C193.128 282.7 192.648 282.833 192.195 283.1C191.755 283.353 191.395 283.727 191.115 284.22C190.848 284.713 190.715 285.293 190.715 285.96C190.715 286.627 190.848 287.207 191.115 287.7C191.395 288.193 191.755 288.573 192.195 288.84C192.648 289.093 193.128 289.22 193.635 289.22C194.155 289.22 194.635 289.087 195.075 288.82C195.528 288.553 195.888 288.173 196.155 287.68C196.435 287.187 196.575 286.6 196.575 285.92ZM215.23 280.26C216.59 280.26 217.683 280.68 218.51 281.52C219.35 282.347 219.77 283.507 219.77 285V291.5H216.97V285.38C216.97 284.513 216.75 283.853 216.31 283.4C215.87 282.933 215.27 282.7 214.51 282.7C213.75 282.7 213.143 282.933 212.69 283.4C212.25 283.853 212.03 284.513 212.03 285.38V291.5H209.23V285.38C209.23 284.513 209.01 283.853 208.57 283.4C208.13 282.933 207.53 282.7 206.77 282.7C205.997 282.7 205.383 282.933 204.93 283.4C204.49 283.853 204.27 284.513 204.27 285.38V291.5H201.47V280.42H204.27V281.76C204.63 281.293 205.09 280.927 205.65 280.66C206.223 280.393 206.85 280.26 207.53 280.26C208.397 280.26 209.17 280.447 209.85 280.82C210.53 281.18 211.057 281.7 211.43 282.38C211.79 281.74 212.31 281.227 212.99 280.84C213.683 280.453 214.43 280.26 215.23 280.26ZM223.847 279.1C223.354 279.1 222.94 278.947 222.607 278.64C222.287 278.32 222.127 277.927 222.127 277.46C222.127 276.993 222.287 276.607 222.607 276.3C222.94 275.98 223.354 275.82 223.847 275.82C224.34 275.82 224.747 275.98 225.067 276.3C225.4 276.607 225.567 276.993 225.567 277.46C225.567 277.927 225.4 278.32 225.067 278.64C224.747 278.947 224.34 279.1 223.847 279.1ZM225.227 280.42V291.5H222.427V280.42H225.227ZM231.253 282.72V288.08C231.253 288.453 231.34 288.727 231.513 288.9C231.7 289.06 232.007 289.14 232.433 289.14H233.733V291.5H231.973C229.613 291.5 228.433 290.353 228.433 288.06V282.72H227.113V280.42H228.433V277.68H231.253V280.42H233.733V282.72H231.253ZM250.813 285.72C250.813 286.12 250.786 286.48 250.733 286.8H242.633C242.699 287.6 242.979 288.227 243.473 288.68C243.966 289.133 244.573 289.36 245.293 289.36C246.333 289.36 247.073 288.913 247.513 288.02H250.533C250.213 289.087 249.599 289.967 248.693 290.66C247.786 291.34 246.673 291.68 245.353 291.68C244.286 291.68 243.326 291.447 242.473 290.98C241.633 290.5 240.973 289.827 240.493 288.96C240.026 288.093 239.793 287.093 239.793 285.96C239.793 284.813 240.026 283.807 240.493 282.94C240.959 282.073 241.613 281.407 242.453 280.94C243.293 280.473 244.259 280.24 245.353 280.24C246.406 280.24 247.346 280.467 248.173 280.92C249.013 281.373 249.659 282.02 250.113 282.86C250.579 283.687 250.813 284.64 250.813 285.72ZM247.913 284.92C247.899 284.2 247.639 283.627 247.133 283.2C246.626 282.76 246.006 282.54 245.273 282.54C244.579 282.54 243.993 282.753 243.513 283.18C243.046 283.593 242.759 284.173 242.653 284.92H247.913ZM258.977 291.5L256.697 288.06L254.677 291.5H251.677L255.297 285.94L251.637 280.42H254.797L257.057 283.84L259.097 280.42H262.097L258.457 285.94L262.137 291.5H258.977ZM266.457 282.02C266.817 281.513 267.311 281.093 267.937 280.76C268.577 280.413 269.304 280.24 270.117 280.24C271.064 280.24 271.917 280.473 272.677 280.94C273.451 281.407 274.057 282.073 274.497 282.94C274.951 283.793 275.177 284.787 275.177 285.92C275.177 287.053 274.951 288.06 274.497 288.94C274.057 289.807 273.451 290.48 272.677 290.96C271.917 291.44 271.064 291.68 270.117 291.68C269.304 291.68 268.584 291.513 267.957 291.18C267.344 290.847 266.844 290.427 266.457 289.92V296.78H263.657V280.42H266.457V282.02ZM272.317 285.92C272.317 285.253 272.177 284.68 271.897 284.2C271.631 283.707 271.271 283.333 270.817 283.08C270.377 282.827 269.897 282.7 269.377 282.7C268.871 282.7 268.391 282.833 267.937 283.1C267.497 283.353 267.137 283.727 266.857 284.22C266.591 284.713 266.457 285.293 266.457 285.96C266.457 286.627 266.591 287.207 266.857 287.7C267.137 288.193 267.497 288.573 267.937 288.84C268.391 289.093 268.871 289.22 269.377 289.22C269.897 289.22 270.377 289.087 270.817 288.82C271.271 288.553 271.631 288.173 271.897 287.68C272.177 287.187 272.317 286.6 272.317 285.92ZM287.512 285.72C287.512 286.12 287.485 286.48 287.432 286.8H279.332C279.399 287.6 279.679 288.227 280.172 288.68C280.665 289.133 281.272 289.36 281.992 289.36C283.032 289.36 283.772 288.913 284.212 288.02H287.232C286.912 289.087 286.299 289.967 285.392 290.66C284.485 291.34 283.372 291.68 282.052 291.68C280.985 291.68 280.025 291.447 279.172 290.98C278.332 290.5 277.672 289.827 277.192 288.96C276.725 288.093 276.492 287.093 276.492 285.96C276.492 284.813 276.725 283.807 277.192 282.94C277.659 282.073 278.312 281.407 279.152 280.94C279.992 280.473 280.959 280.24 282.052 280.24C283.105 280.24 284.045 280.467 284.872 280.92C285.712 281.373 286.359 282.02 286.812 282.86C287.279 283.687 287.512 284.64 287.512 285.72ZM284.612 284.92C284.599 284.2 284.339 283.627 283.832 283.2C283.325 282.76 282.705 282.54 281.972 282.54C281.279 282.54 280.692 282.753 280.212 283.18C279.745 283.593 279.459 284.173 279.352 284.92H284.612ZM292.356 282.14C292.716 281.553 293.182 281.093 293.756 280.76C294.342 280.427 295.009 280.26 295.756 280.26V283.2H295.016C294.136 283.2 293.469 283.407 293.016 283.82C292.576 284.233 292.356 284.953 292.356 285.98V291.5H289.556V280.42H292.356V282.14ZM300.902 282.72V288.08C300.902 288.453 300.988 288.727 301.162 288.9C301.348 289.06 301.655 289.14 302.082 289.14H303.382V291.5H301.622C299.262 291.5 298.082 290.353 298.082 288.06V282.72H296.762V280.42H298.082V277.68H300.902V280.42H303.382V282.72H300.902ZM314.401 291.68C313.495 291.68 312.681 291.52 311.961 291.2C311.241 290.867 310.668 290.42 310.241 289.86C309.828 289.3 309.601 288.68 309.561 288H312.381C312.435 288.427 312.641 288.78 313.001 289.06C313.375 289.34 313.835 289.48 314.381 289.48C314.915 289.48 315.328 289.373 315.621 289.16C315.928 288.947 316.081 288.673 316.081 288.34C316.081 287.98 315.895 287.713 315.521 287.54C315.161 287.353 314.581 287.153 313.781 286.94C312.955 286.74 312.275 286.533 311.741 286.32C311.221 286.107 310.768 285.78 310.381 285.34C310.008 284.9 309.821 284.307 309.821 283.56C309.821 282.947 309.995 282.387 310.341 281.88C310.701 281.373 311.208 280.973 311.861 280.68C312.528 280.387 313.308 280.24 314.201 280.24C315.521 280.24 316.575 280.573 317.361 281.24C318.148 281.893 318.581 282.78 318.661 283.9H315.981C315.941 283.46 315.755 283.113 315.421 282.86C315.101 282.593 314.668 282.46 314.121 282.46C313.615 282.46 313.221 282.553 312.941 282.74C312.675 282.927 312.541 283.187 312.541 283.52C312.541 283.893 312.728 284.18 313.101 284.38C313.475 284.567 314.055 284.76 314.841 284.96C315.641 285.16 316.301 285.367 316.821 285.58C317.341 285.793 317.788 286.127 318.161 286.58C318.548 287.02 318.748 287.607 318.761 288.34C318.761 288.98 318.581 289.553 318.221 290.06C317.875 290.567 317.368 290.967 316.701 291.26C316.048 291.54 315.281 291.68 314.401 291.68ZM327.3 280.26C328.14 280.26 328.886 280.447 329.54 280.82C330.193 281.18 330.7 281.72 331.06 282.44C331.433 283.147 331.62 284 331.62 285V291.5H328.82V285.38C328.82 284.5 328.6 283.827 328.16 283.36C327.72 282.88 327.12 282.64 326.36 282.64C325.586 282.64 324.973 282.88 324.52 283.36C324.08 283.827 323.86 284.5 323.86 285.38V291.5H321.06V276.7H323.86V281.8C324.22 281.32 324.7 280.947 325.3 280.68C325.9 280.4 326.566 280.26 327.3 280.26ZM344.582 285.72C344.582 286.12 344.556 286.48 344.502 286.8H336.402C336.469 287.6 336.749 288.227 337.242 288.68C337.736 289.133 338.342 289.36 339.062 289.36C340.102 289.36 340.842 288.913 341.282 288.02H344.302C343.982 289.087 343.369 289.967 342.462 290.66C341.556 291.34 340.442 291.68 339.122 291.68C338.056 291.68 337.096 291.447 336.242 290.98C335.402 290.5 334.742 289.827 334.262 288.96C333.796 288.093 333.562 287.093 333.562 285.96C333.562 284.813 333.796 283.807 334.262 282.94C334.729 282.073 335.382 281.407 336.222 280.94C337.062 280.473 338.029 280.24 339.122 280.24C340.176 280.24 341.116 280.467 341.942 280.92C342.782 281.373 343.429 282.02 343.882 282.86C344.349 283.687 344.582 284.64 344.582 285.72ZM341.682 284.92C341.669 284.2 341.409 283.627 340.902 283.2C340.396 282.76 339.776 282.54 339.042 282.54C338.349 282.54 337.762 282.753 337.282 283.18C336.816 283.593 336.529 284.173 336.422 284.92H341.682ZM356.926 285.72C356.926 286.12 356.899 286.48 356.846 286.8H348.746C348.813 287.6 349.093 288.227 349.586 288.68C350.079 289.133 350.686 289.36 351.406 289.36C352.446 289.36 353.186 288.913 353.626 288.02H356.646C356.326 289.087 355.713 289.967 354.806 290.66C353.899 291.34 352.786 291.68 351.466 291.68C350.399 291.68 349.439 291.447 348.586 290.98C347.746 290.5 347.086 289.827 346.606 288.96C346.139 288.093 345.906 287.093 345.906 285.96C345.906 284.813 346.139 283.807 346.606 282.94C347.073 282.073 347.726 281.407 348.566 280.94C349.406 280.473 350.373 280.24 351.466 280.24C352.519 280.24 353.459 280.467 354.286 280.92C355.126 281.373 355.773 282.02 356.226 282.86C356.693 283.687 356.926 284.64 356.926 285.72ZM354.026 284.92C354.013 284.2 353.753 283.627 353.246 283.2C352.739 282.76 352.119 282.54 351.386 282.54C350.693 282.54 350.106 282.753 349.626 283.18C349.159 283.593 348.873 284.173 348.766 284.92H354.026ZM362.23 282.72V288.08C362.23 288.453 362.317 288.727 362.49 288.9C362.677 289.06 362.983 289.14 363.41 289.14H364.71V291.5H362.95C360.59 291.5 359.41 290.353 359.41 288.06V282.72H358.09V280.42H359.41V277.68H362.23V280.42H364.71V282.72H362.23Z" fill="#373737"/>
<rect width="183" height="46" transform="translate(356 187.5)" fill="#C2EBE9"/>
<path d="M430.475 214.34C431.755 213.273 432.775 212.387 433.535 211.68C434.295 210.96 434.928 210.213 435.435 209.44C435.942 208.667 436.195 207.907 436.195 207.16C436.195 206.48 436.035 205.947 435.715 205.56C435.395 205.173 434.902 204.98 434.235 204.98C433.568 204.98 433.055 205.207 432.695 205.66C432.335 206.1 432.148 206.707 432.135 207.48H429.415C429.468 205.88 429.942 204.667 430.835 203.84C431.742 203.013 432.888 202.6 434.275 202.6C435.795 202.6 436.962 203.007 437.775 203.82C438.588 204.62 438.995 205.68 438.995 207C438.995 208.04 438.715 209.033 438.155 209.98C437.595 210.927 436.955 211.753 436.235 212.46C435.515 213.153 434.575 213.993 433.415 214.98H439.315V217.3H429.435V215.22L430.475 214.34ZM440.96 214.66V212.46L447.5 203.1H450.76V212.22H452.52V214.66H450.76V217.5H447.96V214.66H440.96ZM448.14 206.1L444.04 212.22H448.14V206.1ZM460.862 206.26C461.702 206.26 462.449 206.447 463.102 206.82C463.756 207.18 464.262 207.72 464.622 208.44C464.996 209.147 465.182 210 465.182 211V217.5H462.382V211.38C462.382 210.5 462.162 209.827 461.722 209.36C461.282 208.88 460.682 208.64 459.922 208.64C459.149 208.64 458.536 208.88 458.082 209.36C457.642 209.827 457.422 210.5 457.422 211.38V217.5H454.622V202.7H457.422V207.8C457.782 207.32 458.262 206.947 458.862 206.68C459.462 206.4 460.129 206.26 460.862 206.26Z" fill="#373737"/>
<path d="M712.766 189.336H703.599V183.5H700.266V189.336H680.266V183.5H676.932V189.336H667.766C667.103 189.337 666.467 189.601 665.999 190.07C665.53 190.539 665.266 191.174 665.266 191.838V226.855C665.266 227.518 665.53 228.154 665.999 228.623C666.467 229.092 667.103 229.356 667.766 229.356H712.766C713.428 229.356 714.064 229.092 714.533 228.623C715.001 228.154 715.265 227.518 715.266 226.855V191.838C715.265 191.174 715.001 190.539 714.533 190.07C714.064 189.601 713.428 189.337 712.766 189.336ZM711.932 226.021H668.599V192.671H676.932V196.84H680.266V192.671H700.266V196.84H703.599V192.671H711.932V226.021Z" fill="black"/>
<path d="M688.953 211.991L683.288 206.323L680.931 208.681L688.953 216.707L702.038 203.616L699.681 201.257L688.953 211.991Z" fill="black"/>
<path d="M675.422 275.396V277.656H669.602V281.236H674.062V283.456H669.602V289.356H666.802V275.396H675.422ZM678.827 276.956C678.334 276.956 677.921 276.803 677.587 276.496C677.267 276.176 677.107 275.783 677.107 275.316C677.107 274.85 677.267 274.463 677.587 274.156C677.921 273.836 678.334 273.676 678.827 273.676C679.321 273.676 679.727 273.836 680.047 274.156C680.381 274.463 680.547 274.85 680.547 275.316C680.547 275.783 680.381 276.176 680.047 276.496C679.727 276.803 679.321 276.956 678.827 276.956ZM680.207 278.276V289.356H677.407V278.276H680.207ZM685.774 279.996C686.134 279.41 686.6 278.95 687.174 278.616C687.76 278.283 688.427 278.116 689.174 278.116V281.056H688.434C687.554 281.056 686.887 281.263 686.434 281.676C685.994 282.09 685.774 282.81 685.774 283.836V289.356H682.974V278.276H685.774V279.996ZM695.3 289.536C694.393 289.536 693.58 289.376 692.86 289.056C692.14 288.723 691.566 288.276 691.14 287.716C690.726 287.156 690.5 286.536 690.46 285.856H693.28C693.333 286.283 693.54 286.636 693.9 286.916C694.273 287.196 694.733 287.336 695.28 287.336C695.813 287.336 696.226 287.23 696.52 287.016C696.826 286.803 696.98 286.53 696.98 286.196C696.98 285.836 696.793 285.57 696.42 285.396C696.06 285.21 695.48 285.01 694.68 284.796C693.853 284.596 693.173 284.39 692.64 284.176C692.12 283.963 691.666 283.636 691.28 283.196C690.906 282.756 690.72 282.163 690.72 281.416C690.72 280.803 690.893 280.243 691.24 279.736C691.6 279.23 692.106 278.83 692.76 278.536C693.426 278.243 694.206 278.096 695.1 278.096C696.42 278.096 697.473 278.43 698.26 279.096C699.046 279.75 699.48 280.636 699.56 281.756H696.88C696.84 281.316 696.653 280.97 696.32 280.716C696 280.45 695.566 280.316 695.02 280.316C694.513 280.316 694.12 280.41 693.84 280.596C693.573 280.783 693.44 281.043 693.44 281.376C693.44 281.75 693.626 282.036 694 282.236C694.373 282.423 694.953 282.616 695.74 282.816C696.54 283.016 697.2 283.223 697.72 283.436C698.24 283.65 698.686 283.983 699.06 284.436C699.446 284.876 699.646 285.463 699.66 286.196C699.66 286.836 699.48 287.41 699.12 287.916C698.773 288.423 698.266 288.823 697.6 289.116C696.946 289.396 696.18 289.536 695.3 289.536ZM705.218 280.576V285.936C705.218 286.31 705.305 286.583 705.478 286.756C705.665 286.916 705.971 286.996 706.398 286.996H707.698V289.356H705.938C703.578 289.356 702.398 288.21 702.398 285.916V280.576H701.078V278.276H702.398V275.536H705.218V278.276H707.698V280.576H705.218ZM717.278 279.896C717.638 279.363 718.131 278.93 718.758 278.596C719.398 278.263 720.124 278.096 720.938 278.096C721.884 278.096 722.738 278.33 723.498 278.796C724.271 279.263 724.878 279.93 725.318 280.796C725.771 281.65 725.998 282.643 725.998 283.776C725.998 284.91 725.771 285.916 725.318 286.796C724.878 287.663 724.271 288.336 723.498 288.816C722.738 289.296 721.884 289.536 720.938 289.536C720.111 289.536 719.384 289.376 718.758 289.056C718.144 288.723 717.651 288.296 717.278 287.776V289.356H714.478V274.556H717.278V279.896ZM723.138 283.776C723.138 283.11 722.998 282.536 722.718 282.056C722.451 281.563 722.091 281.19 721.638 280.936C721.198 280.683 720.718 280.556 720.198 280.556C719.691 280.556 719.211 280.69 718.758 280.956C718.318 281.21 717.958 281.583 717.678 282.076C717.411 282.57 717.278 283.15 717.278 283.816C717.278 284.483 717.411 285.063 717.678 285.556C717.958 286.05 718.318 286.43 718.758 286.696C719.211 286.95 719.691 287.076 720.198 287.076C720.718 287.076 721.198 286.943 721.638 286.676C722.091 286.41 722.451 286.03 722.718 285.536C722.998 285.043 723.138 284.456 723.138 283.776ZM729.452 276.956C728.959 276.956 728.546 276.803 728.212 276.496C727.892 276.176 727.732 275.783 727.732 275.316C727.732 274.85 727.892 274.463 728.212 274.156C728.546 273.836 728.959 273.676 729.452 273.676C729.946 273.676 730.352 273.836 730.672 274.156C731.006 274.463 731.172 274.85 731.172 275.316C731.172 275.783 731.006 276.176 730.672 276.496C730.352 276.803 729.946 276.956 729.452 276.956ZM730.832 278.276V289.356H728.032V278.276H730.832ZM736.399 274.556V289.356H733.599V274.556H736.399ZM741.965 274.556V289.356H739.165V274.556H741.965ZM755.032 283.576C755.032 283.976 755.005 284.336 754.952 284.656H746.852C746.918 285.456 747.198 286.083 747.692 286.536C748.185 286.99 748.792 287.216 749.512 287.216C750.552 287.216 751.292 286.77 751.732 285.876H754.752C754.432 286.943 753.818 287.823 752.912 288.516C752.005 289.196 750.892 289.536 749.572 289.536C748.505 289.536 747.545 289.303 746.692 288.836C745.852 288.356 745.192 287.683 744.712 286.816C744.245 285.95 744.012 284.95 744.012 283.816C744.012 282.67 744.245 281.663 744.712 280.796C745.178 279.93 745.832 279.263 746.672 278.796C747.512 278.33 748.478 278.096 749.572 278.096C750.625 278.096 751.565 278.323 752.392 278.776C753.232 279.23 753.878 279.876 754.332 280.716C754.798 281.543 755.032 282.496 755.032 283.576ZM752.132 282.776C752.118 282.056 751.858 281.483 751.352 281.056C750.845 280.616 750.225 280.396 749.492 280.396C748.798 280.396 748.212 280.61 747.732 281.036C747.265 281.45 746.978 282.03 746.872 282.776H752.132ZM756.355 283.776C756.355 282.656 756.575 281.663 757.015 280.796C757.469 279.93 758.082 279.263 758.855 278.796C759.629 278.33 760.489 278.096 761.435 278.096C762.155 278.096 762.842 278.256 763.495 278.576C764.149 278.883 764.669 279.296 765.055 279.816V274.556H767.895V289.356H765.055V287.716C764.709 288.263 764.222 288.703 763.595 289.036C762.969 289.37 762.242 289.536 761.415 289.536C760.482 289.536 759.629 289.296 758.855 288.816C758.082 288.336 757.469 287.663 757.015 286.796C756.575 285.916 756.355 284.91 756.355 283.776ZM765.075 283.816C765.075 283.136 764.942 282.556 764.675 282.076C764.409 281.583 764.049 281.21 763.595 280.956C763.142 280.69 762.655 280.556 762.135 280.556C761.615 280.556 761.135 280.683 760.695 280.936C760.255 281.19 759.895 281.563 759.615 282.056C759.349 282.536 759.215 283.11 759.215 283.776C759.215 284.443 759.349 285.03 759.615 285.536C759.895 286.03 760.255 286.41 760.695 286.676C761.149 286.943 761.629 287.076 762.135 287.076C762.655 287.076 763.142 286.95 763.595 286.696C764.049 286.43 764.409 286.056 764.675 285.576C764.942 285.083 765.075 284.496 765.075 283.816ZM785.996 278.276L779.136 294.596H776.156L778.556 289.076L774.116 278.276H777.256L780.116 286.016L783.016 278.276H785.996ZM797.805 283.576C797.805 283.976 797.778 284.336 797.725 284.656H789.625C789.692 285.456 789.972 286.083 790.465 286.536C790.958 286.99 791.565 287.216 792.285 287.216C793.325 287.216 794.065 286.77 794.505 285.876H797.525C797.205 286.943 796.592 287.823 795.685 288.516C794.778 289.196 793.665 289.536 792.345 289.536C791.278 289.536 790.318 289.303 789.465 288.836C788.625 288.356 787.965 287.683 787.485 286.816C787.018 285.95 786.785 284.95 786.785 283.816C786.785 282.67 787.018 281.663 787.485 280.796C787.952 279.93 788.605 279.263 789.445 278.796C790.285 278.33 791.252 278.096 792.345 278.096C793.398 278.096 794.338 278.323 795.165 278.776C796.005 279.23 796.652 279.876 797.105 280.716C797.572 281.543 797.805 282.496 797.805 283.576ZM794.905 282.776C794.892 282.056 794.632 281.483 794.125 281.056C793.618 280.616 792.998 280.396 792.265 280.396C791.572 280.396 790.985 280.61 790.505 281.036C790.038 281.45 789.752 282.03 789.645 282.776H794.905ZM799.129 283.776C799.129 282.656 799.349 281.663 799.789 280.796C800.242 279.93 800.849 279.263 801.609 278.796C802.382 278.33 803.242 278.096 804.189 278.096C805.015 278.096 805.735 278.263 806.349 278.596C806.975 278.93 807.475 279.35 807.849 279.856V278.276H810.669V289.356H807.849V287.736C807.489 288.256 806.989 288.69 806.349 289.036C805.722 289.37 804.995 289.536 804.169 289.536C803.235 289.536 802.382 289.296 801.609 288.816C800.849 288.336 800.242 287.663 799.789 286.796C799.349 285.916 799.129 284.91 799.129 283.776ZM807.849 283.816C807.849 283.136 807.715 282.556 807.449 282.076C807.182 281.583 806.822 281.21 806.369 280.956C805.915 280.69 805.429 280.556 804.909 280.556C804.389 280.556 803.909 280.683 803.469 280.936C803.029 281.19 802.669 281.563 802.389 282.056C802.122 282.536 801.989 283.11 801.989 283.776C801.989 284.443 802.122 285.03 802.389 285.536C802.669 286.03 803.029 286.41 803.469 286.676C803.922 286.943 804.402 287.076 804.909 287.076C805.429 287.076 805.915 286.95 806.369 286.696C806.822 286.43 807.182 286.056 807.449 285.576C807.715 285.083 807.849 284.496 807.849 283.816ZM816.203 279.996C816.563 279.41 817.03 278.95 817.603 278.616C818.19 278.283 818.857 278.116 819.603 278.116V281.056H818.863C817.983 281.056 817.317 281.263 816.863 281.676C816.423 282.09 816.203 282.81 816.203 283.836V289.356H813.403V278.276H816.203V279.996Z" fill="#373737"/>
<line x1="447.328" y1="185.5" x2="447.328" y2="106.5" stroke="#88BCBA" stroke-width="2" stroke-dasharray="5 5"/>
<path d="M451.904 22C454.726 22 457.433 20.8674 459.429 18.8514C461.425 16.8354 462.546 14.1011 462.546 11.25C462.546 8.39892 461.425 5.66462 459.429 3.6486C457.433 1.63259 454.726 0.5 451.904 0.5C449.082 0.5 446.375 1.63259 444.379 3.6486C442.383 5.66462 441.262 8.39892 441.262 11.25C441.262 14.1011 442.383 16.8354 444.379 18.8514C446.375 20.8674 449.082 22 451.904 22ZM458.999 11.25C458.999 13.1507 458.251 14.9736 456.921 16.3176C455.59 17.6616 453.786 18.4167 451.904 18.4167C450.022 18.4167 448.218 17.6616 446.887 16.3176C445.557 14.9736 444.809 13.1507 444.809 11.25C444.809 9.34928 445.557 7.52641 446.887 6.1824C448.218 4.83839 450.022 4.08333 451.904 4.08333C453.786 4.08333 455.59 4.83839 456.921 6.1824C458.251 7.52641 458.999 9.34928 458.999 11.25ZM473.188 39.9167C473.188 43.5 469.64 43.5 469.64 43.5H434.167C434.167 43.5 430.62 43.5 430.62 39.9167C430.62 36.3333 434.167 25.5833 451.904 25.5833C469.64 25.5833 473.188 36.3333 473.188 39.9167ZM469.64 39.9023C469.637 39.0208 469.094 36.3692 466.689 33.9397C464.376 31.6033 460.024 29.1667 451.904 29.1667C443.781 29.1667 439.432 31.6033 437.119 33.9397C434.714 36.3692 434.175 39.0208 434.167 39.9023H469.64Z" fill="black"/>
<path fill-rule="evenodd" clip-rule="evenodd" d="M486.859 11.7732C487.024 11.9396 487.155 12.1373 487.245 12.355C487.334 12.5726 487.38 12.806 487.38 13.0417C487.38 13.2773 487.334 13.5107 487.245 13.7284C487.155 13.946 487.024 14.1437 486.859 14.3102L476.217 25.0602C476.052 25.227 475.857 25.3594 475.641 25.4497C475.426 25.54 475.195 25.5865 474.961 25.5865C474.728 25.5865 474.497 25.54 474.282 25.4497C474.066 25.3594 473.87 25.227 473.706 25.0602L468.385 19.6852C468.052 19.3487 467.865 18.8924 467.865 18.4167C467.865 17.9409 468.052 17.4846 468.385 17.1482C468.718 16.8117 469.169 16.6227 469.64 16.6227C470.111 16.6227 470.563 16.8117 470.896 17.1482L474.961 21.2583L484.348 11.7732C484.512 11.6063 484.708 11.4739 484.924 11.3836C485.139 11.2933 485.37 11.2468 485.603 11.2468C485.837 11.2468 486.068 11.2933 486.283 11.3836C486.499 11.4739 486.694 11.6063 486.859 11.7732Z" fill="black"/>
<path d="M366.235 83.84H360.675L359.755 86.5H356.815L361.835 72.52H365.095L370.115 86.5H367.155L366.235 83.84ZM365.475 81.6L363.455 75.76L361.435 81.6H365.475ZM371.271 80.96C371.271 79.8133 371.505 78.8133 371.971 77.96C372.438 77.0933 373.085 76.4267 373.911 75.96C374.738 75.48 375.685 75.24 376.751 75.24C378.125 75.24 379.258 75.5867 380.151 76.28C381.058 76.96 381.665 77.92 381.971 79.16H378.951C378.791 78.68 378.518 78.3067 378.131 78.04C377.758 77.76 377.291 77.62 376.731 77.62C375.931 77.62 375.298 77.9133 374.831 78.5C374.365 79.0733 374.131 79.8933 374.131 80.96C374.131 82.0133 374.365 82.8333 374.831 83.42C375.298 83.9933 375.931 84.28 376.731 84.28C377.865 84.28 378.605 83.7733 378.951 82.76H381.971C381.665 83.96 381.058 84.9133 380.151 85.62C379.245 86.3267 378.111 86.68 376.751 86.68C375.685 86.68 374.738 86.4467 373.911 85.98C373.085 85.5 372.438 84.8333 371.971 83.98C371.505 83.1133 371.271 82.1067 371.271 80.96ZM383.303 80.96C383.303 79.8133 383.536 78.8133 384.003 77.96C384.469 77.0933 385.116 76.4267 385.943 75.96C386.769 75.48 387.716 75.24 388.783 75.24C390.156 75.24 391.289 75.5867 392.183 76.28C393.089 76.96 393.696 77.92 394.003 79.16H390.983C390.823 78.68 390.549 78.3067 390.163 78.04C389.789 77.76 389.323 77.62 388.763 77.62C387.963 77.62 387.329 77.9133 386.863 78.5C386.396 79.0733 386.163 79.8933 386.163 80.96C386.163 82.0133 386.396 82.8333 386.863 83.42C387.329 83.9933 387.963 84.28 388.763 84.28C389.896 84.28 390.636 83.7733 390.983 82.76H394.003C393.696 83.96 393.089 84.9133 392.183 85.62C391.276 86.3267 390.143 86.68 388.783 86.68C387.716 86.68 386.769 86.4467 385.943 85.98C385.116 85.5 384.469 84.8333 384.003 83.98C383.536 83.1133 383.303 82.1067 383.303 80.96ZM400.974 86.68C399.907 86.68 398.947 86.4467 398.094 85.98C397.24 85.5 396.567 84.8267 396.074 83.96C395.594 83.0933 395.354 82.0933 395.354 80.96C395.354 79.8267 395.6 78.8267 396.094 77.96C396.6 77.0933 397.287 76.4267 398.154 75.96C399.02 75.48 399.987 75.24 401.054 75.24C402.12 75.24 403.087 75.48 403.954 75.96C404.82 76.4267 405.5 77.0933 405.994 77.96C406.5 78.8267 406.754 79.8267 406.754 80.96C406.754 82.0933 406.494 83.0933 405.974 83.96C405.467 84.8267 404.774 85.5 403.894 85.98C403.027 86.4467 402.054 86.68 400.974 86.68ZM400.974 84.24C401.48 84.24 401.954 84.12 402.394 83.88C402.847 83.6267 403.207 83.2533 403.474 82.76C403.74 82.2667 403.874 81.6667 403.874 80.96C403.874 79.9067 403.594 79.1 403.034 78.54C402.487 77.9667 401.814 77.68 401.014 77.68C400.214 77.68 399.54 77.9667 398.994 78.54C398.46 79.1 398.194 79.9067 398.194 80.96C398.194 82.0133 398.454 82.8267 398.974 83.4C399.507 83.96 400.174 84.24 400.974 84.24ZM419.268 75.42V86.5H416.448V85.1C416.088 85.58 415.614 85.96 415.028 86.24C414.454 86.5067 413.828 86.64 413.148 86.64C412.281 86.64 411.514 86.46 410.848 86.1C410.181 85.7267 409.654 85.1867 409.268 84.48C408.894 83.76 408.708 82.9067 408.708 81.92V75.42H411.508V81.52C411.508 82.4 411.728 83.08 412.168 83.56C412.608 84.0267 413.208 84.26 413.968 84.26C414.741 84.26 415.348 84.0267 415.788 83.56C416.228 83.08 416.448 82.4 416.448 81.52V75.42H419.268ZM428.17 75.26C429.49 75.26 430.557 75.68 431.37 76.52C432.184 77.3467 432.59 78.5067 432.59 80V86.5H429.79V80.38C429.79 79.5 429.57 78.8267 429.13 78.36C428.69 77.88 428.09 77.64 427.33 77.64C426.557 77.64 425.944 77.88 425.49 78.36C425.05 78.8267 424.83 79.5 424.83 80.38V86.5H422.03V75.42H424.83V76.8C425.204 76.32 425.677 75.9467 426.25 75.68C426.837 75.4 427.477 75.26 428.17 75.26ZM438.513 77.72V83.08C438.513 83.4533 438.6 83.7267 438.773 83.9C438.96 84.06 439.266 84.14 439.693 84.14H440.993V86.5H439.233C436.873 86.5 435.693 85.3533 435.693 83.06V77.72H434.373V75.42H435.693V72.68H438.513V75.42H440.993V77.72H438.513ZM452.393 83.92L455.193 75.42H458.173L454.073 86.5H450.673L446.593 75.42H449.593L452.393 83.92ZM470.045 80.72C470.045 81.12 470.019 81.48 469.965 81.8H461.865C461.932 82.6 462.212 83.2267 462.705 83.68C463.199 84.1333 463.805 84.36 464.525 84.36C465.565 84.36 466.305 83.9133 466.745 83.02H469.765C469.445 84.0867 468.832 84.9667 467.925 85.66C467.019 86.34 465.905 86.68 464.585 86.68C463.519 86.68 462.559 86.4467 461.705 85.98C460.865 85.5 460.205 84.8267 459.725 83.96C459.259 83.0933 459.025 82.0933 459.025 80.96C459.025 79.8133 459.259 78.8067 459.725 77.94C460.192 77.0733 460.845 76.4067 461.685 75.94C462.525 75.4733 463.492 75.24 464.585 75.24C465.639 75.24 466.579 75.4667 467.405 75.92C468.245 76.3733 468.892 77.02 469.345 77.86C469.812 78.6867 470.045 79.64 470.045 80.72ZM467.145 79.92C467.132 79.2 466.872 78.6267 466.365 78.2C465.859 77.76 465.239 77.54 464.505 77.54C463.812 77.54 463.225 77.7533 462.745 78.18C462.279 78.5933 461.992 79.1733 461.885 79.92H467.145ZM474.889 77.14C475.249 76.5533 475.716 76.0933 476.289 75.76C476.876 75.4267 477.542 75.26 478.289 75.26V78.2H477.549C476.669 78.2 476.002 78.4067 475.549 78.82C475.109 79.2333 474.889 79.9533 474.889 80.98V86.5H472.089V75.42H474.889V77.14ZM481.595 74.1C481.102 74.1 480.688 73.9467 480.355 73.64C480.035 73.32 479.875 72.9267 479.875 72.46C479.875 71.9933 480.035 71.6067 480.355 71.3C480.688 70.98 481.102 70.82 481.595 70.82C482.088 70.82 482.495 70.98 482.815 71.3C483.148 71.6067 483.315 71.9933 483.315 72.46C483.315 72.9267 483.148 73.32 482.815 73.64C482.495 73.9467 482.088 74.1 481.595 74.1ZM482.975 75.42V86.5H480.175V75.42H482.975ZM490.821 77.72H488.881V86.5H486.041V77.72H484.781V75.42H486.041V74.86C486.041 73.5 486.428 72.5 487.201 71.86C487.975 71.22 489.141 70.92 490.701 70.96V73.32C490.021 73.3067 489.548 73.42 489.281 73.66C489.015 73.9 488.881 74.3333 488.881 74.96V75.42H490.821V77.72ZM494.056 74.1C493.563 74.1 493.149 73.9467 492.816 73.64C492.496 73.32 492.336 72.9267 492.336 72.46C492.336 71.9933 492.496 71.6067 492.816 71.3C493.149 70.98 493.563 70.82 494.056 70.82C494.549 70.82 494.956 70.98 495.276 71.3C495.609 71.6067 495.776 71.9933 495.776 72.46C495.776 72.9267 495.609 73.32 495.276 73.64C494.956 73.9467 494.549 74.1 494.056 74.1ZM495.436 75.42V86.5H492.636V75.42H495.436ZM497.482 80.96C497.482 79.8133 497.716 78.8133 498.182 77.96C498.649 77.0933 499.296 76.4267 500.122 75.96C500.949 75.48 501.896 75.24 502.962 75.24C504.336 75.24 505.469 75.5867 506.362 76.28C507.269 76.96 507.876 77.92 508.182 79.16H505.162C505.002 78.68 504.729 78.3067 504.342 78.04C503.969 77.76 503.502 77.62 502.942 77.62C502.142 77.62 501.509 77.9133 501.042 78.5C500.576 79.0733 500.342 79.8933 500.342 80.96C500.342 82.0133 500.576 82.8333 501.042 83.42C501.509 83.9933 502.142 84.28 502.942 84.28C504.076 84.28 504.816 83.7733 505.162 82.76H508.182C507.876 83.96 507.269 84.9133 506.362 85.62C505.456 86.3267 504.322 86.68 502.962 86.68C501.896 86.68 500.949 86.4467 500.122 85.98C499.296 85.5 498.649 84.8333 498.182 83.98C497.716 83.1133 497.482 82.1067 497.482 80.96ZM509.514 80.92C509.514 79.8 509.734 78.8067 510.174 77.94C510.627 77.0733 511.234 76.4067 511.994 75.94C512.767 75.4733 513.627 75.24 514.574 75.24C515.4 75.24 516.12 75.4067 516.734 75.74C517.36 76.0733 517.86 76.4933 518.234 77V75.42H521.054V86.5H518.234V84.88C517.874 85.4 517.374 85.8333 516.734 86.18C516.107 86.5133 515.38 86.68 514.554 86.68C513.62 86.68 512.767 86.44 511.994 85.96C511.234 85.48 510.627 84.8067 510.174 83.94C509.734 83.06 509.514 82.0533 509.514 80.92ZM518.234 80.96C518.234 80.28 518.1 79.7 517.834 79.22C517.567 78.7267 517.207 78.3533 516.754 78.1C516.3 77.8333 515.814 77.7 515.294 77.7C514.774 77.7 514.294 77.8267 513.854 78.08C513.414 78.3333 513.054 78.7067 512.774 79.2C512.507 79.68 512.374 80.2533 512.374 80.92C512.374 81.5867 512.507 82.1733 512.774 82.68C513.054 83.1733 513.414 83.5533 513.854 83.82C514.307 84.0867 514.787 84.22 515.294 84.22C515.814 84.22 516.3 84.0933 516.754 83.84C517.207 83.5733 517.567 83.2 517.834 82.72C518.1 82.2267 518.234 81.64 518.234 80.96ZM527.048 77.72V83.08C527.048 83.4533 527.135 83.7267 527.308 83.9C527.495 84.06 527.802 84.14 528.228 84.14H529.528V86.5H527.768C525.408 86.5 524.228 85.3533 524.228 83.06V77.72H522.908V75.42H524.228V72.68H527.048V75.42H529.528V77.72H527.048ZM532.962 74.1C532.469 74.1 532.055 73.9467 531.722 73.64C531.402 73.32 531.242 72.9267 531.242 72.46C531.242 71.9933 531.402 71.6067 531.722 71.3C532.055 70.98 532.469 70.82 532.962 70.82C533.455 70.82 533.862 70.98 534.182 71.3C534.515 71.6067 534.682 71.9933 534.682 72.46C534.682 72.9267 534.515 73.32 534.182 73.64C533.862 73.9467 533.455 74.1 532.962 74.1ZM534.342 75.42V86.5H531.542V75.42H534.342ZM542.029 86.68C540.962 86.68 540.002 86.4467 539.149 85.98C538.295 85.5 537.622 84.8267 537.129 83.96C536.649 83.0933 536.409 82.0933 536.409 80.96C536.409 79.8267 536.655 78.8267 537.149 77.96C537.655 77.0933 538.342 76.4267 539.209 75.96C540.075 75.48 541.042 75.24 542.109 75.24C543.175 75.24 544.142 75.48 545.009 75.96C545.875 76.4267 546.555 77.0933 547.049 77.96C547.555 78.8267 547.809 79.8267 547.809 80.96C547.809 82.0933 547.549 83.0933 547.029 83.96C546.522 84.8267 545.829 85.5 544.949 85.98C544.082 86.4467 543.109 86.68 542.029 86.68ZM542.029 84.24C542.535 84.24 543.009 84.12 543.449 83.88C543.902 83.6267 544.262 83.2533 544.529 82.76C544.795 82.2667 544.929 81.6667 544.929 80.96C544.929 79.9067 544.649 79.1 544.089 78.54C543.542 77.9667 542.869 77.68 542.069 77.68C541.269 77.68 540.595 77.9667 540.049 78.54C539.515 79.1 539.249 79.9067 539.249 80.96C539.249 82.0133 539.509 82.8267 540.029 83.4C540.562 83.96 541.229 84.24 542.029 84.24ZM556.002 75.26C557.322 75.26 558.389 75.68 559.202 76.52C560.016 77.3467 560.422 78.5067 560.422 80V86.5H557.622V80.38C557.622 79.5 557.402 78.8267 556.962 78.36C556.522 77.88 555.922 77.64 555.162 77.64C554.389 77.64 553.776 77.88 553.322 78.36C552.882 78.8267 552.662 79.5 552.662 80.38V86.5H549.862V75.42H552.662V76.8C553.036 76.32 553.509 75.9467 554.082 75.68C554.669 75.4 555.309 75.26 556.002 75.26Z" fill="#373737"/>
</svg>
