<svg width="25" height="25" viewBox="0 0 25 25" fill="none" xmlns="http://www.w3.org/2000/svg">
<path d="M12.8829 8.52442C10.6864 8.52442 8.89392 10.3109 8.89392 12.5C8.89392 14.6891 10.6864 16.4756 12.8829 16.4756C15.0794 16.4756 16.8718 14.6891 16.8718 12.5C16.8718 10.3109 15.0794 8.52442 12.8829 8.52442ZM24.8468 12.5C24.8468 10.8537 24.8617 9.22231 24.769 7.57899C24.6762 5.67024 24.2393 3.97622 22.8388 2.58045C21.4354 1.18169 19.7386 0.749239 17.8235 0.656784C16.1716 0.564329 14.5347 0.579241 12.8859 0.579241C11.234 0.579241 9.59715 0.564329 7.9483 0.656784C6.03311 0.749239 4.33339 1.18467 2.93291 2.58045C1.52944 3.97921 1.09553 5.67024 1.00277 7.57899C0.91 9.22529 0.924962 10.8567 0.924962 12.5C0.924962 14.1433 0.91 15.7777 1.00277 17.421C1.09553 19.3297 1.53243 21.0238 2.93291 22.4195C4.33638 23.8183 6.03311 24.2507 7.9483 24.3432C9.60014 24.4357 11.237 24.4207 12.8859 24.4207C14.5377 24.4207 16.1746 24.4357 17.8235 24.3432C19.7386 24.2507 21.4384 23.8153 22.8388 22.4195C24.2423 21.0208 24.6762 19.3297 24.769 17.421C24.8647 15.7777 24.8468 14.1463 24.8468 12.5ZM12.8829 18.6169C9.48643 18.6169 6.74532 15.885 6.74532 12.5C6.74532 9.11494 9.48643 6.38304 12.8829 6.38304C16.2793 6.38304 19.0204 9.11494 19.0204 12.5C19.0204 15.885 16.2793 18.6169 12.8829 18.6169ZM19.2718 7.5611C18.4788 7.5611 17.8384 6.92286 17.8384 6.13252C17.8384 5.34217 18.4788 4.70393 19.2718 4.70393C20.0648 4.70393 20.7052 5.34217 20.7052 6.13252C20.7054 6.32019 20.6685 6.50606 20.5966 6.67949C20.5246 6.85292 20.4191 7.0105 20.2859 7.1432C20.1528 7.2759 19.9946 7.38112 19.8206 7.45283C19.6466 7.52454 19.4601 7.56133 19.2718 7.5611Z" fill="white"/>
</svg>
