<svg width="36" height="28" viewBox="0 0 36 28" fill="none" xmlns="http://www.w3.org/2000/svg">
<path d="M5.4 0V24.0435C5.4 24.4471 5.24196 24.8341 4.96066 25.1195C4.67936 25.4049 4.29782 25.5652 3.9 25.5652C3.50218 25.5652 3.12064 25.4049 2.83934 25.1195C2.55804 24.8341 2.4 24.4471 2.4 24.0435V6.08696H0V24.0435C0.00117118 25.0924 0.412439 26.0981 1.14358 26.8398C1.87472 27.5816 2.86601 27.9988 3.9 28H32.1C33.134 27.9988 34.1253 27.5816 34.8564 26.8398C35.5876 26.0981 35.9988 25.0924 36 24.0435V0H5.4ZM33.6 24.0435C33.5995 24.4469 33.4414 24.8337 33.1602 25.119C32.879 25.4043 32.4977 25.5648 32.1 25.5652H7.5C7.69857 25.0832 7.80055 24.5659 7.8 24.0435V2.43478H33.6V24.0435Z" fill="#111111"/>
<path d="M21 4.86957H10.2V17.0435H21V4.86957ZM18.6 14.6087H12.6V7.30435H18.6V14.6087Z" fill="#111111"/>
<path d="M23.4 4.86957H31.2V7.30435H23.4V4.86957Z" fill="#111111"/>
<path d="M23.4 9.73913H31.2V12.1739H23.4V9.73913Z" fill="#111111"/>
<path d="M23.4 14.6087H31.2V17.0435H23.4V14.6087Z" fill="#111111"/>
<path d="M14.6197 23.9513H13.3618L11.2579 20.9402V23.9513H10V19.0695H11.2579L13.3618 22.0946V19.0695H14.6197V23.9513Z" fill="#111111"/>
<path d="M16.7894 20.0223V21.0097H18.474V21.9277H16.7894V22.9986H18.6947V23.9513H15.5315V19.0695H18.6947V20.0223H16.7894Z" fill="#111111"/>
<path d="M26.6175 19.0695L25.2713 23.9513H23.7485L22.9247 20.7385L22.0713 23.9513H20.5486L19.2392 19.0695H20.5854L21.3284 22.6231L22.2479 19.0695H23.6308L24.5136 22.6231L25.2639 19.0695H26.6175Z" fill="#111111"/>
<path d="M29.1168 24C28.7392 24 28.4008 23.942 28.1016 23.8261C27.8025 23.7102 27.5622 23.5387 27.3807 23.3115C27.2042 23.0844 27.111 22.8108 27.1012 22.491H28.44C28.4597 22.6718 28.5259 22.8108 28.6387 22.9082C28.7514 23.0009 28.8986 23.0473 29.08 23.0473C29.2664 23.0473 29.4135 23.0079 29.5214 22.9291C29.6293 22.8456 29.6832 22.732 29.6832 22.5883C29.6832 22.4678 29.6391 22.3681 29.5508 22.2893C29.4675 22.2105 29.362 22.1456 29.2345 22.0946C29.1119 22.0436 28.9354 21.9856 28.7049 21.9207C28.3714 21.8234 28.0992 21.726 27.8883 21.6287C27.6774 21.5313 27.496 21.3876 27.344 21.1975C27.1919 21.0074 27.1159 20.7594 27.1159 20.4534C27.1159 19.9991 27.29 19.6444 27.6382 19.3894C27.9864 19.1298 28.44 19 28.9991 19C29.568 19 30.0265 19.1298 30.3747 19.3894C30.7229 19.6444 30.9093 20.0014 30.9338 20.4604H29.5729C29.5631 20.3027 29.5018 20.1799 29.389 20.0918C29.2762 19.9991 29.1315 19.9527 28.955 19.9527C28.8029 19.9527 28.6803 19.9921 28.5872 20.0709C28.494 20.1451 28.4474 20.2541 28.4474 20.3978C28.4474 20.5554 28.5259 20.6783 28.6828 20.7663C28.8397 20.8544 29.0849 20.9495 29.4184 21.0515C29.7519 21.1581 30.0216 21.2601 30.2276 21.3574C30.4385 21.4548 30.6199 21.5962 30.772 21.7816C30.924 21.9671 31 22.2058 31 22.4979C31 22.7761 30.924 23.0287 30.772 23.2559C30.6248 23.4831 30.4091 23.6639 30.1246 23.7983C29.8402 23.9328 29.5042 24 29.1168 24Z" fill="#111111"/>
</svg>
