<svg width="20" height="22" viewBox="0 0 20 22" fill="none" xmlns="http://www.w3.org/2000/svg">
<path d="M9.12791 0.534912H10.8721C11.0271 0.534912 11.1047 0.612431 11.1047 0.76747V21.2326C11.1047 21.3876 11.0271 21.4651 10.8721 21.4651H9.12791C8.97287 21.4651 8.89535 21.3876 8.89535 21.2326V0.76747C8.89535 0.612431 8.97287 0.534912 9.12791 0.534912Z" fill="#111111"/>
<path d="M0.232558 9.89538H19.7674C19.9225 9.89538 20 9.9729 20 10.1279V11.8721C20 12.0272 19.9225 12.1047 19.7674 12.1047H0.232558C0.0775194 12.1047 0 12.0272 0 11.8721V10.1279C0 9.9729 0.0775194 9.89538 0.232558 9.89538Z" fill="#111111"/>
</svg>
