<svg width="918" height="300" viewBox="0 0 918 300" fill="none" xmlns="http://www.w3.org/2000/svg">
<line y1="159.5" x2="633" y2="159.5" stroke="#88BCBA" stroke-width="2"/>
<line y1="259.5" x2="633" y2="259.5" stroke="#88BCBA" stroke-width="2"/>
<line y1="-1" x2="285" y2="-1" transform="matrix(-1 0 0 1 918 160.5)" stroke="#88BCBA" stroke-width="2" stroke-dasharray="10 10"/>
<line x1="338" y1="183.5" x2="338" y2="104.5" stroke="#88BCBA" stroke-width="2" stroke-dasharray="5 5"/>
<line y1="-1" x2="285" y2="-1" transform="matrix(-1 0 0 1 918 260.5)" stroke="#88BCBA" stroke-width="2" stroke-dasharray="10 10"/>
<path d="M69.9351 205.5H38.7334V191.5C38.7334 189.569 40.2997 188 42.228 188H57.704C59.6323 188 61.1986 189.569 61.1986 191.5V195.75C61.1986 196.025 61.4233 196.25 61.6979 196.25H65.1925C65.467 196.25 65.6917 196.025 65.6917 195.75V191.5C65.6917 187.081 62.116 183.5 57.704 183.5H42.228C37.8161 183.5 34.2403 187.081 34.2403 191.5V205.5H29.9969C28.8924 205.5 28 206.394 28 207.5V231.5C28 232.606 28.8924 233.5 29.9969 233.5H69.9351C71.0397 233.5 71.932 232.606 71.932 231.5V207.5C71.932 206.394 71.0397 205.5 69.9351 205.5ZM67.439 229H32.493V210H67.439V229ZM48.2187 220.312V223.625C48.2187 223.9 48.4434 224.125 48.7179 224.125H51.2141C51.4887 224.125 51.7133 223.9 51.7133 223.625V220.312C52.2284 219.942 52.6129 219.418 52.8114 218.814C53.0099 218.211 53.0122 217.56 52.818 216.956C52.6237 216.351 52.2429 215.824 51.7304 215.45C51.2179 215.076 50.6002 214.874 49.966 214.874C49.3319 214.874 48.7141 215.076 48.2016 215.45C47.6891 215.824 47.3083 216.351 47.1141 216.956C46.9198 217.56 46.9221 218.211 47.1206 218.814C47.3191 219.418 47.7036 219.942 48.2187 220.312Z" fill="black"/>
<path d="M38.5568 279.04L33.2368 291.5H30.3968L35.7568 279.36H28.9168V276.96H38.5568V279.04ZM44.5995 285.92C44.5995 284.8 44.8195 283.807 45.2595 282.94C45.7128 282.073 46.3261 281.407 47.0995 280.94C47.8728 280.473 48.7328 280.24 49.6795 280.24C50.3995 280.24 51.0861 280.4 51.7395 280.72C52.3928 281.027 52.9128 281.44 53.2995 281.96V276.7H56.1395V291.5H53.2995V289.86C52.9528 290.407 52.4661 290.847 51.8395 291.18C51.2128 291.513 50.4861 291.68 49.6595 291.68C48.7261 291.68 47.8728 291.44 47.0995 290.96C46.3261 290.48 45.7128 289.807 45.2595 288.94C44.8195 288.06 44.5995 287.053 44.5995 285.92ZM53.3195 285.96C53.3195 285.28 53.1861 284.7 52.9195 284.22C52.6528 283.727 52.2928 283.353 51.8395 283.1C51.3861 282.833 50.8995 282.7 50.3795 282.7C49.8595 282.7 49.3795 282.827 48.9395 283.08C48.4995 283.333 48.1395 283.707 47.8595 284.2C47.5928 284.68 47.4595 285.253 47.4595 285.92C47.4595 286.587 47.5928 287.173 47.8595 287.68C48.1395 288.173 48.4995 288.553 48.9395 288.82C49.3928 289.087 49.8728 289.22 50.3795 289.22C50.8995 289.22 51.3861 289.093 51.8395 288.84C52.2928 288.573 52.6528 288.2 52.9195 287.72C53.1861 287.227 53.3195 286.64 53.3195 285.96ZM58.1541 285.92C58.1541 284.8 58.3741 283.807 58.8141 282.94C59.2675 282.073 59.8741 281.407 60.6341 280.94C61.4075 280.473 62.2675 280.24 63.2141 280.24C64.0408 280.24 64.7608 280.407 65.3741 280.74C66.0008 281.073 66.5008 281.493 66.8741 282V280.42H69.6941V291.5H66.8741V289.88C66.5141 290.4 66.0141 290.833 65.3741 291.18C64.7475 291.513 64.0208 291.68 63.1941 291.68C62.2608 291.68 61.4075 291.44 60.6341 290.96C59.8741 290.48 59.2675 289.807 58.8141 288.94C58.3741 288.06 58.1541 287.053 58.1541 285.92ZM66.8741 285.96C66.8741 285.28 66.7408 284.7 66.4741 284.22C66.2075 283.727 65.8475 283.353 65.3941 283.1C64.9408 282.833 64.4541 282.7 63.9341 282.7C63.4141 282.7 62.9341 282.827 62.4941 283.08C62.0541 283.333 61.6941 283.707 61.4141 284.2C61.1475 284.68 61.0141 285.253 61.0141 285.92C61.0141 286.587 61.1475 287.173 61.4141 287.68C61.6941 288.173 62.0541 288.553 62.4941 288.82C62.9475 289.087 63.4275 289.22 63.9341 289.22C64.4541 289.22 64.9408 289.093 65.3941 288.84C65.8475 288.573 66.2075 288.2 66.4741 287.72C66.7408 287.227 66.8741 286.64 66.8741 285.96ZM83.0288 280.42L76.1688 296.74H73.1888L75.5888 291.22L71.1488 280.42H74.2888L77.1488 288.16L80.0488 280.42H83.0288ZM88.7782 291.68C87.8715 291.68 87.0582 291.52 86.3382 291.2C85.6182 290.867 85.0449 290.42 84.6182 289.86C84.2049 289.3 83.9782 288.68 83.9382 288H86.7582C86.8115 288.427 87.0182 288.78 87.3782 289.06C87.7515 289.34 88.2115 289.48 88.7582 289.48C89.2915 289.48 89.7049 289.373 89.9982 289.16C90.3049 288.947 90.4582 288.673 90.4582 288.34C90.4582 287.98 90.2715 287.713 89.8982 287.54C89.5382 287.353 88.9582 287.153 88.1582 286.94C87.3315 286.74 86.6515 286.533 86.1182 286.32C85.5982 286.107 85.1449 285.78 84.7582 285.34C84.3849 284.9 84.1982 284.307 84.1982 283.56C84.1982 282.947 84.3715 282.387 84.7182 281.88C85.0782 281.373 85.5849 280.973 86.2382 280.68C86.9049 280.387 87.6849 280.24 88.5782 280.24C89.8982 280.24 90.9515 280.573 91.7382 281.24C92.5249 281.893 92.9582 282.78 93.0382 283.9H90.3582C90.3182 283.46 90.1315 283.113 89.7982 282.86C89.4782 282.593 89.0449 282.46 88.4982 282.46C87.9915 282.46 87.5982 282.553 87.3182 282.74C87.0515 282.927 86.9182 283.187 86.9182 283.52C86.9182 283.893 87.1049 284.18 87.4782 284.38C87.8515 284.567 88.4315 284.76 89.2182 284.96C90.0182 285.16 90.6782 285.367 91.1982 285.58C91.7182 285.793 92.1649 286.127 92.5382 286.58C92.9249 287.02 93.1249 287.607 93.1382 288.34C93.1382 288.98 92.9582 289.553 92.5982 290.06C92.2515 290.567 91.7449 290.967 91.0782 291.26C90.4249 291.54 89.6582 291.68 88.7782 291.68ZM105.282 282.72H103.342V291.5H100.502V282.72H99.2423V280.42H100.502V279.86C100.502 278.5 100.889 277.5 101.662 276.86C102.436 276.22 103.602 275.92 105.162 275.96V278.32C104.482 278.307 104.009 278.42 103.742 278.66C103.476 278.9 103.342 279.333 103.342 279.96V280.42H105.282V282.72ZM109.897 282.14C110.257 281.553 110.723 281.093 111.297 280.76C111.883 280.427 112.55 280.26 113.297 280.26V283.2H112.557C111.677 283.2 111.01 283.407 110.557 283.82C110.117 284.233 109.897 284.953 109.897 285.98V291.5H107.097V280.42H109.897V282.14ZM125.483 285.72C125.483 286.12 125.456 286.48 125.403 286.8H117.303C117.369 287.6 117.649 288.227 118.143 288.68C118.636 289.133 119.243 289.36 119.963 289.36C121.003 289.36 121.743 288.913 122.183 288.02H125.203C124.883 289.087 124.269 289.967 123.363 290.66C122.456 291.34 121.343 291.68 120.023 291.68C118.956 291.68 117.996 291.447 117.143 290.98C116.303 290.5 115.643 289.827 115.163 288.96C114.696 288.093 114.463 287.093 114.463 285.96C114.463 284.813 114.696 283.807 115.163 282.94C115.629 282.073 116.283 281.407 117.123 280.94C117.963 280.473 118.929 280.24 120.023 280.24C121.076 280.24 122.016 280.467 122.843 280.92C123.683 281.373 124.329 282.02 124.783 282.86C125.249 283.687 125.483 284.64 125.483 285.72ZM122.583 284.92C122.569 284.2 122.309 283.627 121.803 283.2C121.296 282.76 120.676 282.54 119.943 282.54C119.249 282.54 118.663 282.753 118.183 283.18C117.716 283.593 117.429 284.173 117.323 284.92H122.583ZM137.826 285.72C137.826 286.12 137.8 286.48 137.746 286.8H129.646C129.713 287.6 129.993 288.227 130.486 288.68C130.98 289.133 131.586 289.36 132.306 289.36C133.346 289.36 134.086 288.913 134.526 288.02H137.546C137.226 289.087 136.613 289.967 135.706 290.66C134.8 291.34 133.686 291.68 132.366 291.68C131.3 291.68 130.34 291.447 129.486 290.98C128.646 290.5 127.986 289.827 127.506 288.96C127.04 288.093 126.806 287.093 126.806 285.96C126.806 284.813 127.04 283.807 127.506 282.94C127.973 282.073 128.626 281.407 129.466 280.94C130.306 280.473 131.273 280.24 132.366 280.24C133.42 280.24 134.36 280.467 135.186 280.92C136.026 281.373 136.673 282.02 137.126 282.86C137.593 283.687 137.826 284.64 137.826 285.72ZM134.926 284.92C134.913 284.2 134.653 283.627 134.146 283.2C133.64 282.76 133.02 282.54 132.286 282.54C131.593 282.54 131.006 282.753 130.526 283.18C130.06 283.593 129.773 284.173 129.666 284.92H134.926ZM147.896 282.72V288.08C147.896 288.453 147.983 288.727 148.156 288.9C148.343 289.06 148.649 289.14 149.076 289.14H150.376V291.5H148.616C146.256 291.5 145.076 290.353 145.076 288.06V282.72H143.756V280.42H145.076V277.68H147.896V280.42H150.376V282.72H147.896ZM155.19 282.14C155.55 281.553 156.016 281.093 156.59 280.76C157.176 280.427 157.843 280.26 158.59 280.26V283.2H157.85C156.97 283.2 156.303 283.407 155.85 283.82C155.41 284.233 155.19 284.953 155.19 285.98V291.5H152.39V280.42H155.19V282.14ZM161.896 279.1C161.402 279.1 160.989 278.947 160.656 278.64C160.336 278.32 160.176 277.927 160.176 277.46C160.176 276.993 160.336 276.607 160.656 276.3C160.989 275.98 161.402 275.82 161.896 275.82C162.389 275.82 162.796 275.98 163.116 276.3C163.449 276.607 163.616 276.993 163.616 277.46C163.616 277.927 163.449 278.32 163.116 278.64C162.796 278.947 162.389 279.1 161.896 279.1ZM163.276 280.42V291.5H160.476V280.42H163.276ZM165.322 285.92C165.322 284.8 165.542 283.807 165.982 282.94C166.435 282.073 167.042 281.407 167.802 280.94C168.575 280.473 169.435 280.24 170.382 280.24C171.209 280.24 171.929 280.407 172.542 280.74C173.169 281.073 173.669 281.493 174.042 282V280.42H176.862V291.5H174.042V289.88C173.682 290.4 173.182 290.833 172.542 291.18C171.915 291.513 171.189 291.68 170.362 291.68C169.429 291.68 168.575 291.44 167.802 290.96C167.042 290.48 166.435 289.807 165.982 288.94C165.542 288.06 165.322 287.053 165.322 285.92ZM174.042 285.96C174.042 285.28 173.909 284.7 173.642 284.22C173.375 283.727 173.015 283.353 172.562 283.1C172.109 282.833 171.622 282.7 171.102 282.7C170.582 282.7 170.102 282.827 169.662 283.08C169.222 283.333 168.862 283.707 168.582 284.2C168.315 284.68 168.182 285.253 168.182 285.92C168.182 286.587 168.315 287.173 168.582 287.68C168.862 288.173 169.222 288.553 169.662 288.82C170.115 289.087 170.595 289.22 171.102 289.22C171.622 289.22 172.109 289.093 172.562 288.84C173.015 288.573 173.375 288.2 173.642 287.72C173.909 287.227 174.042 286.64 174.042 285.96ZM182.397 276.7V291.5H179.597V276.7H182.397Z" fill="#373737"/>
<rect width="28" height="46" transform="translate(124 185.5)" fill="#C2EBE9"/>
<path d="M134.198 212.34C135.478 211.273 136.498 210.387 137.258 209.68C138.018 208.96 138.651 208.213 139.158 207.44C139.664 206.667 139.918 205.907 139.918 205.16C139.918 204.48 139.758 203.947 139.438 203.56C139.118 203.173 138.624 202.98 137.958 202.98C137.291 202.98 136.778 203.207 136.418 203.66C136.058 204.1 135.871 204.707 135.858 205.48H133.138C133.191 203.88 133.664 202.667 134.558 201.84C135.464 201.013 136.611 200.6 137.998 200.6C139.518 200.6 140.684 201.007 141.498 201.82C142.311 202.62 142.718 203.68 142.718 205C142.718 206.04 142.438 207.033 141.878 207.98C141.318 208.927 140.678 209.753 139.958 210.46C139.238 211.153 138.298 211.993 137.138 212.98H143.038V215.3H133.158V213.22L134.198 212.34Z" fill="#373737"/>
<rect width="28" height="46" transform="translate(190 185.5)" fill="#C2EBE9"/>
<path d="M199.114 204.76C199.18 203.427 199.647 202.4 200.514 201.68C201.394 200.947 202.547 200.58 203.974 200.58C204.947 200.58 205.78 200.753 206.474 201.1C207.167 201.433 207.687 201.893 208.034 202.48C208.394 203.053 208.574 203.707 208.574 204.44C208.574 205.28 208.354 205.993 207.914 206.58C207.487 207.153 206.974 207.54 206.374 207.74V207.82C207.147 208.06 207.747 208.487 208.174 209.1C208.614 209.713 208.834 210.5 208.834 211.46C208.834 212.26 208.647 212.973 208.274 213.6C207.914 214.227 207.374 214.72 206.654 215.08C205.947 215.427 205.094 215.6 204.094 215.6C202.587 215.6 201.36 215.22 200.414 214.46C199.467 213.7 198.967 212.58 198.914 211.1H201.634C201.66 211.753 201.88 212.28 202.294 212.68C202.72 213.067 203.3 213.26 204.034 213.26C204.714 213.26 205.234 213.073 205.594 212.7C205.967 212.313 206.154 211.82 206.154 211.22C206.154 210.42 205.9 209.847 205.394 209.5C204.887 209.153 204.1 208.98 203.034 208.98H202.454V206.68H203.034C204.927 206.68 205.874 206.047 205.874 204.78C205.874 204.207 205.7 203.76 205.354 203.44C205.02 203.12 204.534 202.96 203.894 202.96C203.267 202.96 202.78 203.133 202.434 203.48C202.1 203.813 201.907 204.24 201.854 204.76H199.114Z" fill="#373737"/>
<rect width="30" height="46" transform="translate(256 185.5)" fill="#C2EBE9"/>
<path d="M265.329 212.66V210.46L271.869 201.1H275.129V210.22H276.889V212.66H275.129V215.5H272.329V212.66H265.329ZM272.509 204.1L268.409 210.22H272.509V204.1Z" fill="#373737"/>
<rect width="29" height="46" transform="translate(324 185.5)" fill="#C2EBE9"/>
<path d="M342.924 203.34H336.444V206.76C336.724 206.413 337.124 206.133 337.644 205.92C338.164 205.693 338.718 205.58 339.304 205.58C340.371 205.58 341.244 205.813 341.924 206.28C342.604 206.747 343.098 207.347 343.404 208.08C343.711 208.8 343.864 209.573 343.864 210.4C343.864 211.933 343.424 213.167 342.544 214.1C341.678 215.033 340.438 215.5 338.824 215.5C337.304 215.5 336.091 215.12 335.184 214.36C334.278 213.6 333.764 212.607 333.644 211.38H336.364C336.484 211.913 336.751 212.34 337.164 212.66C337.591 212.98 338.131 213.14 338.784 213.14C339.571 213.14 340.164 212.893 340.564 212.4C340.964 211.907 341.164 211.253 341.164 210.44C341.164 209.613 340.958 208.987 340.544 208.56C340.144 208.12 339.551 207.9 338.764 207.9C338.204 207.9 337.738 208.04 337.364 208.32C336.991 208.6 336.724 208.973 336.564 209.44H333.884V200.88H342.924V203.34Z" fill="#373737"/>
<rect width="29" height="46" transform="translate(391 185.5)" fill="#C2EBE9"/>
<path d="M407.724 204.56C407.59 204 407.357 203.58 407.024 203.3C406.704 203.02 406.237 202.88 405.624 202.88C404.704 202.88 404.024 203.253 403.584 204C403.157 204.733 402.937 205.933 402.924 207.6C403.244 207.067 403.71 206.653 404.324 206.36C404.937 206.053 405.604 205.9 406.324 205.9C407.19 205.9 407.957 206.087 408.624 206.46C409.29 206.833 409.81 207.38 410.184 208.1C410.557 208.807 410.744 209.66 410.744 210.66C410.744 211.607 410.55 212.453 410.164 213.2C409.79 213.933 409.237 214.507 408.504 214.92C407.77 215.333 406.897 215.54 405.884 215.54C404.497 215.54 403.404 215.233 402.604 214.62C401.817 214.007 401.264 213.153 400.944 212.06C400.637 210.953 400.484 209.593 400.484 207.98C400.484 205.54 400.904 203.7 401.744 202.46C402.584 201.207 403.91 200.58 405.724 200.58C407.124 200.58 408.21 200.96 408.984 201.72C409.757 202.48 410.204 203.427 410.324 204.56H407.724ZM405.684 208.2C404.977 208.2 404.384 208.407 403.904 208.82C403.424 209.233 403.184 209.833 403.184 210.62C403.184 211.407 403.404 212.027 403.844 212.48C404.297 212.933 404.93 213.16 405.744 213.16C406.464 213.16 407.03 212.94 407.444 212.5C407.87 212.06 408.084 211.467 408.084 210.72C408.084 209.947 407.877 209.333 407.464 208.88C407.064 208.427 406.47 208.2 405.684 208.2Z" fill="#373737"/>
<rect width="27" height="46" transform="translate(458 185.5)" fill="#C2EBE9"/>
<path d="M476.361 203.04L471.041 215.5H468.201L473.561 203.36H466.721V200.96H476.361V203.04Z" fill="#373737"/>
<path d="M580.5 191.336H571.333V185.5H568V191.336H548V185.5H544.667V191.336H535.5C534.837 191.337 534.202 191.601 533.733 192.07C533.264 192.539 533.001 193.174 533 193.838V228.855C533.001 229.518 533.264 230.154 533.733 230.623C534.202 231.092 534.837 231.356 535.5 231.356H580.5C581.163 231.356 581.798 231.092 582.267 230.623C582.736 230.154 582.999 229.518 583 228.855V193.838C582.999 193.174 582.736 192.539 582.267 192.07C581.798 191.601 581.163 191.337 580.5 191.336ZM579.667 228.021H536.333V194.671H544.667V198.84H548V194.671H568V198.84H571.333V194.671H579.667V228.021Z" fill="black"/>
<path d="M556.687 213.991L551.022 208.323L548.665 210.681L556.687 218.707L569.772 205.616L567.415 203.257L556.687 213.991Z" fill="black"/>
<path d="M543.072 277.396V279.656H537.252V283.236H541.712V285.456H537.252V291.356H534.452V277.396H543.072ZM546.478 278.956C545.984 278.956 545.571 278.803 545.238 278.496C544.918 278.176 544.758 277.783 544.758 277.316C544.758 276.85 544.918 276.463 545.238 276.156C545.571 275.836 545.984 275.676 546.478 275.676C546.971 275.676 547.378 275.836 547.698 276.156C548.031 276.463 548.198 276.85 548.198 277.316C548.198 277.783 548.031 278.176 547.698 278.496C547.378 278.803 546.971 278.956 546.478 278.956ZM547.858 280.276V291.356H545.058V280.276H547.858ZM553.424 281.996C553.784 281.41 554.251 280.95 554.824 280.616C555.411 280.283 556.077 280.116 556.824 280.116V283.056H556.084C555.204 283.056 554.537 283.263 554.084 283.676C553.644 284.09 553.424 284.81 553.424 285.836V291.356H550.624V280.276H553.424V281.996ZM562.95 291.536C562.043 291.536 561.23 291.376 560.51 291.056C559.79 290.723 559.217 290.276 558.79 289.716C558.377 289.156 558.15 288.536 558.11 287.856H560.93C560.983 288.283 561.19 288.636 561.55 288.916C561.923 289.196 562.383 289.336 562.93 289.336C563.463 289.336 563.877 289.23 564.17 289.016C564.477 288.803 564.63 288.53 564.63 288.196C564.63 287.836 564.443 287.57 564.07 287.396C563.71 287.21 563.13 287.01 562.33 286.796C561.503 286.596 560.823 286.39 560.29 286.176C559.77 285.963 559.317 285.636 558.93 285.196C558.557 284.756 558.37 284.163 558.37 283.416C558.37 282.803 558.543 282.243 558.89 281.736C559.25 281.23 559.757 280.83 560.41 280.536C561.077 280.243 561.857 280.096 562.75 280.096C564.07 280.096 565.123 280.43 565.91 281.096C566.697 281.75 567.13 282.636 567.21 283.756H564.53C564.49 283.316 564.303 282.97 563.97 282.716C563.65 282.45 563.217 282.316 562.67 282.316C562.163 282.316 561.77 282.41 561.49 282.596C561.223 282.783 561.09 283.043 561.09 283.376C561.09 283.75 561.277 284.036 561.65 284.236C562.023 284.423 562.603 284.616 563.39 284.816C564.19 285.016 564.85 285.223 565.37 285.436C565.89 285.65 566.337 285.983 566.71 286.436C567.097 286.876 567.297 287.463 567.31 288.196C567.31 288.836 567.13 289.41 566.77 289.916C566.423 290.423 565.917 290.823 565.25 291.116C564.597 291.396 563.83 291.536 562.95 291.536ZM572.869 282.576V287.936C572.869 288.31 572.955 288.583 573.129 288.756C573.315 288.916 573.622 288.996 574.049 288.996H575.349V291.356H573.589C571.229 291.356 570.049 290.21 570.049 287.916V282.576H568.729V280.276H570.049V277.536H572.869V280.276H575.349V282.576H572.869ZM584.928 281.896C585.288 281.363 585.781 280.93 586.408 280.596C587.048 280.263 587.775 280.096 588.588 280.096C589.535 280.096 590.388 280.33 591.148 280.796C591.921 281.263 592.528 281.93 592.968 282.796C593.421 283.65 593.648 284.643 593.648 285.776C593.648 286.91 593.421 287.916 592.968 288.796C592.528 289.663 591.921 290.336 591.148 290.816C590.388 291.296 589.535 291.536 588.588 291.536C587.761 291.536 587.035 291.376 586.408 291.056C585.795 290.723 585.301 290.296 584.928 289.776V291.356H582.128V276.556H584.928V281.896ZM590.788 285.776C590.788 285.11 590.648 284.536 590.368 284.056C590.101 283.563 589.741 283.19 589.288 282.936C588.848 282.683 588.368 282.556 587.848 282.556C587.341 282.556 586.861 282.69 586.408 282.956C585.968 283.21 585.608 283.583 585.328 284.076C585.061 284.57 584.928 285.15 584.928 285.816C584.928 286.483 585.061 287.063 585.328 287.556C585.608 288.05 585.968 288.43 586.408 288.696C586.861 288.95 587.341 289.076 587.848 289.076C588.368 289.076 588.848 288.943 589.288 288.676C589.741 288.41 590.101 288.03 590.368 287.536C590.648 287.043 590.788 286.456 590.788 285.776ZM597.103 278.956C596.609 278.956 596.196 278.803 595.863 278.496C595.543 278.176 595.383 277.783 595.383 277.316C595.383 276.85 595.543 276.463 595.863 276.156C596.196 275.836 596.609 275.676 597.103 275.676C597.596 275.676 598.003 275.836 598.323 276.156C598.656 276.463 598.823 276.85 598.823 277.316C598.823 277.783 598.656 278.176 598.323 278.496C598.003 278.803 597.596 278.956 597.103 278.956ZM598.483 280.276V291.356H595.683V280.276H598.483ZM604.049 276.556V291.356H601.249V276.556H604.049ZM609.616 276.556V291.356H606.816V276.556H609.616ZM622.682 285.576C622.682 285.976 622.655 286.336 622.602 286.656H614.502C614.569 287.456 614.849 288.083 615.342 288.536C615.835 288.99 616.442 289.216 617.162 289.216C618.202 289.216 618.942 288.77 619.382 287.876H622.402C622.082 288.943 621.469 289.823 620.562 290.516C619.655 291.196 618.542 291.536 617.222 291.536C616.155 291.536 615.195 291.303 614.342 290.836C613.502 290.356 612.842 289.683 612.362 288.816C611.895 287.95 611.662 286.95 611.662 285.816C611.662 284.67 611.895 283.663 612.362 282.796C612.829 281.93 613.482 281.263 614.322 280.796C615.162 280.33 616.129 280.096 617.222 280.096C618.275 280.096 619.215 280.323 620.042 280.776C620.882 281.23 621.529 281.876 621.982 282.716C622.449 283.543 622.682 284.496 622.682 285.576ZM619.782 284.776C619.769 284.056 619.509 283.483 619.002 283.056C618.495 282.616 617.875 282.396 617.142 282.396C616.449 282.396 615.862 282.61 615.382 283.036C614.915 283.45 614.629 284.03 614.522 284.776H619.782ZM624.006 285.776C624.006 284.656 624.226 283.663 624.666 282.796C625.119 281.93 625.732 281.263 626.506 280.796C627.279 280.33 628.139 280.096 629.086 280.096C629.806 280.096 630.492 280.256 631.146 280.576C631.799 280.883 632.319 281.296 632.706 281.816V276.556H635.546V291.356H632.706V289.716C632.359 290.263 631.872 290.703 631.246 291.036C630.619 291.37 629.892 291.536 629.066 291.536C628.132 291.536 627.279 291.296 626.506 290.816C625.732 290.336 625.119 289.663 624.666 288.796C624.226 287.916 624.006 286.91 624.006 285.776ZM632.726 285.816C632.726 285.136 632.592 284.556 632.326 284.076C632.059 283.583 631.699 283.21 631.246 282.956C630.792 282.69 630.306 282.556 629.786 282.556C629.266 282.556 628.786 282.683 628.346 282.936C627.906 283.19 627.546 283.563 627.266 284.056C626.999 284.536 626.866 285.11 626.866 285.776C626.866 286.443 626.999 287.03 627.266 287.536C627.546 288.03 627.906 288.41 628.346 288.676C628.799 288.943 629.279 289.076 629.786 289.076C630.306 289.076 630.792 288.95 631.246 288.696C631.699 288.43 632.059 288.056 632.326 287.576C632.592 287.083 632.726 286.496 632.726 285.816ZM656.806 280.116C658.166 280.116 659.259 280.536 660.086 281.376C660.926 282.203 661.346 283.363 661.346 284.856V291.356H658.546V285.236C658.546 284.37 658.326 283.71 657.886 283.256C657.446 282.79 656.846 282.556 656.086 282.556C655.326 282.556 654.719 282.79 654.266 283.256C653.826 283.71 653.606 284.37 653.606 285.236V291.356H650.806V285.236C650.806 284.37 650.586 283.71 650.146 283.256C649.706 282.79 649.106 282.556 648.346 282.556C647.573 282.556 646.959 282.79 646.506 283.256C646.066 283.71 645.846 284.37 645.846 285.236V291.356H643.046V280.276H645.846V281.616C646.206 281.15 646.666 280.783 647.226 280.516C647.799 280.25 648.426 280.116 649.106 280.116C649.973 280.116 650.746 280.303 651.426 280.676C652.106 281.036 652.633 281.556 653.006 282.236C653.366 281.596 653.886 281.083 654.566 280.696C655.259 280.31 656.006 280.116 656.806 280.116ZM668.923 291.536C667.856 291.536 666.896 291.303 666.043 290.836C665.19 290.356 664.516 289.683 664.023 288.816C663.543 287.95 663.303 286.95 663.303 285.816C663.303 284.683 663.55 283.683 664.043 282.816C664.55 281.95 665.236 281.283 666.103 280.816C666.97 280.336 667.936 280.096 669.003 280.096C670.07 280.096 671.036 280.336 671.903 280.816C672.77 281.283 673.45 281.95 673.943 282.816C674.45 283.683 674.703 284.683 674.703 285.816C674.703 286.95 674.443 287.95 673.923 288.816C673.416 289.683 672.723 290.356 671.843 290.836C670.976 291.303 670.003 291.536 668.923 291.536ZM668.923 289.096C669.43 289.096 669.903 288.976 670.343 288.736C670.796 288.483 671.156 288.11 671.423 287.616C671.69 287.123 671.823 286.523 671.823 285.816C671.823 284.763 671.543 283.956 670.983 283.396C670.436 282.823 669.763 282.536 668.963 282.536C668.163 282.536 667.49 282.823 666.943 283.396C666.41 283.956 666.143 284.763 666.143 285.816C666.143 286.87 666.403 287.683 666.923 288.256C667.456 288.816 668.123 289.096 668.923 289.096ZM682.897 280.116C684.217 280.116 685.284 280.536 686.097 281.376C686.91 282.203 687.317 283.363 687.317 284.856V291.356H684.517V285.236C684.517 284.356 684.297 283.683 683.857 283.216C683.417 282.736 682.817 282.496 682.057 282.496C681.284 282.496 680.67 282.736 680.217 283.216C679.777 283.683 679.557 284.356 679.557 285.236V291.356H676.757V280.276H679.557V281.656C679.93 281.176 680.404 280.803 680.977 280.536C681.564 280.256 682.204 280.116 682.897 280.116ZM693.24 282.576V287.936C693.24 288.31 693.326 288.583 693.5 288.756C693.686 288.916 693.993 288.996 694.42 288.996H695.72V291.356H693.96C691.6 291.356 690.42 290.21 690.42 287.916V282.576H689.1V280.276H690.42V277.536H693.24V280.276H695.72V282.576H693.24ZM703.974 280.116C704.814 280.116 705.56 280.303 706.214 280.676C706.867 281.036 707.374 281.576 707.734 282.296C708.107 283.003 708.294 283.856 708.294 284.856V291.356H705.494V285.236C705.494 284.356 705.274 283.683 704.834 283.216C704.394 282.736 703.794 282.496 703.034 282.496C702.26 282.496 701.647 282.736 701.194 283.216C700.754 283.683 700.534 284.356 700.534 285.236V291.356H697.734V276.556H700.534V281.656C700.894 281.176 701.374 280.803 701.974 280.536C702.574 280.256 703.24 280.116 703.974 280.116ZM723.222 272.416L717.822 294.976H715.082L720.482 272.416H723.222ZM740.814 280.276L733.954 296.596H730.974L733.374 291.076L728.934 280.276H732.074L734.934 288.016L737.834 280.276H740.814ZM752.623 285.576C752.623 285.976 752.597 286.336 752.543 286.656H744.443C744.51 287.456 744.79 288.083 745.283 288.536C745.777 288.99 746.383 289.216 747.103 289.216C748.143 289.216 748.883 288.77 749.323 287.876H752.343C752.023 288.943 751.41 289.823 750.503 290.516C749.597 291.196 748.483 291.536 747.163 291.536C746.097 291.536 745.137 291.303 744.283 290.836C743.443 290.356 742.783 289.683 742.303 288.816C741.837 287.95 741.603 286.95 741.603 285.816C741.603 284.67 741.837 283.663 742.303 282.796C742.77 281.93 743.423 281.263 744.263 280.796C745.103 280.33 746.07 280.096 747.163 280.096C748.217 280.096 749.157 280.323 749.983 280.776C750.823 281.23 751.47 281.876 751.923 282.716C752.39 283.543 752.623 284.496 752.623 285.576ZM749.723 284.776C749.71 284.056 749.45 283.483 748.943 283.056C748.437 282.616 747.817 282.396 747.083 282.396C746.39 282.396 745.803 282.61 745.323 283.036C744.857 283.45 744.57 284.03 744.463 284.776H749.723ZM753.947 285.776C753.947 284.656 754.167 283.663 754.607 282.796C755.06 281.93 755.667 281.263 756.427 280.796C757.2 280.33 758.06 280.096 759.007 280.096C759.834 280.096 760.554 280.263 761.167 280.596C761.794 280.93 762.294 281.35 762.667 281.856V280.276H765.487V291.356H762.667V289.736C762.307 290.256 761.807 290.69 761.167 291.036C760.54 291.37 759.814 291.536 758.987 291.536C758.054 291.536 757.2 291.296 756.427 290.816C755.667 290.336 755.06 289.663 754.607 288.796C754.167 287.916 753.947 286.91 753.947 285.776ZM762.667 285.816C762.667 285.136 762.534 284.556 762.267 284.076C762 283.583 761.64 283.21 761.187 282.956C760.734 282.69 760.247 282.556 759.727 282.556C759.207 282.556 758.727 282.683 758.287 282.936C757.847 283.19 757.487 283.563 757.207 284.056C756.94 284.536 756.807 285.11 756.807 285.776C756.807 286.443 756.94 287.03 757.207 287.536C757.487 288.03 757.847 288.41 758.287 288.676C758.74 288.943 759.22 289.076 759.727 289.076C760.247 289.076 760.734 288.95 761.187 288.696C761.64 288.43 762 288.056 762.267 287.576C762.534 287.083 762.667 286.496 762.667 285.816ZM771.022 281.996C771.382 281.41 771.848 280.95 772.422 280.616C773.008 280.283 773.675 280.116 774.422 280.116V283.056H773.682C772.802 283.056 772.135 283.263 771.682 283.676C771.242 284.09 771.022 284.81 771.022 285.836V291.356H768.222V280.276H771.022V281.996Z" fill="#373737"/>
<path d="M359.455 18.8052V39.2225L348.303 28.1974L346.167 30.3096L357.121 41.1549H319.545L330.152 30.3096L327.97 28.2274L317.03 39.4172V13.4724L335.864 32.0023C336.431 32.5603 337.199 32.8735 338 32.8735C338.801 32.8735 339.569 32.5603 340.136 32.0023L353.515 18.8501C352.447 18.5746 351.426 18.1456 350.485 17.5768L337.97 29.8752L319.015 11.1955H345.53C345.237 10.2225 345.079 9.21461 345.061 8.19956H317.03C316.227 8.19956 315.456 8.5152 314.888 9.07705C314.319 9.63889 314 10.4009 314 11.1955V41.1549C314 41.9494 314.319 42.7115 314.888 43.2733C315.456 43.8352 316.227 44.1508 317.03 44.1508H359.455C360.258 44.1508 361.029 43.8352 361.597 43.2733C362.166 42.7115 362.485 41.9494 362.485 41.1549V17.487C361.546 18.0712 360.525 18.5154 359.455 18.8052Z" fill="black"/>
<path d="M356.424 15.4797C360.608 15.4797 364 12.1264 364 7.98984C364 3.85332 360.608 0.5 356.424 0.5C352.24 0.5 348.848 3.85332 348.848 7.98984C348.848 12.1264 352.24 15.4797 356.424 15.4797Z" fill="black"/>
<path d="M266.76 87.1509L263.68 81.7109H262.36V87.1509H259.56V73.1909H264.8C265.88 73.1909 266.8 73.3842 267.56 73.7709C268.32 74.1442 268.886 74.6575 269.26 75.3109C269.646 75.9509 269.84 76.6709 269.84 77.4709C269.84 78.3909 269.573 79.2242 269.04 79.9709C268.506 80.7042 267.713 81.2109 266.66 81.4909L270 87.1509H266.76ZM262.36 79.6109H264.7C265.46 79.6109 266.026 79.4309 266.4 79.0709C266.773 78.6975 266.96 78.1842 266.96 77.5309C266.96 76.8909 266.773 76.3975 266.4 76.0509C266.026 75.6909 265.46 75.5109 264.7 75.5109H262.36V79.6109ZM282.672 81.3709C282.672 81.7709 282.646 82.1309 282.592 82.4509H274.492C274.559 83.2509 274.839 83.8775 275.332 84.3309C275.826 84.7842 276.432 85.0109 277.152 85.0109C278.192 85.0109 278.932 84.5642 279.372 83.6709H282.392C282.072 84.7375 281.459 85.6175 280.552 86.3109C279.646 86.9909 278.532 87.3309 277.212 87.3309C276.146 87.3309 275.186 87.0975 274.332 86.6309C273.492 86.1509 272.832 85.4775 272.352 84.6109C271.886 83.7442 271.652 82.7442 271.652 81.6109C271.652 80.4642 271.886 79.4575 272.352 78.5909C272.819 77.7242 273.472 77.0575 274.312 76.5909C275.152 76.1242 276.119 75.8909 277.212 75.8909C278.266 75.8909 279.206 76.1175 280.032 76.5709C280.872 77.0242 281.519 77.6709 281.972 78.5109C282.439 79.3375 282.672 80.2909 282.672 81.3709ZM279.772 80.5709C279.759 79.8509 279.499 79.2775 278.992 78.8509C278.486 78.4109 277.866 78.1909 277.132 78.1909C276.439 78.1909 275.852 78.4042 275.372 78.8309C274.906 79.2442 274.619 79.8242 274.512 80.5709H279.772ZM298.476 75.9109C299.836 75.9109 300.929 76.3309 301.756 77.1709C302.596 77.9975 303.016 79.1575 303.016 80.6509V87.1509H300.216V81.0309C300.216 80.1642 299.996 79.5042 299.556 79.0509C299.116 78.5842 298.516 78.3509 297.756 78.3509C296.996 78.3509 296.389 78.5842 295.936 79.0509C295.496 79.5042 295.276 80.1642 295.276 81.0309V87.1509H292.476V81.0309C292.476 80.1642 292.256 79.5042 291.816 79.0509C291.376 78.5842 290.776 78.3509 290.016 78.3509C289.243 78.3509 288.629 78.5842 288.176 79.0509C287.736 79.5042 287.516 80.1642 287.516 81.0309V87.1509H284.716V76.0709H287.516V77.4109C287.876 76.9442 288.336 76.5775 288.896 76.3109C289.469 76.0442 290.096 75.9109 290.776 75.9109C291.643 75.9109 292.416 76.0975 293.096 76.4709C293.776 76.8309 294.303 77.3509 294.676 78.0309C295.036 77.3909 295.556 76.8775 296.236 76.4909C296.929 76.1042 297.676 75.9109 298.476 75.9109ZM307.093 74.7509C306.6 74.7509 306.186 74.5975 305.853 74.2909C305.533 73.9709 305.373 73.5775 305.373 73.1109C305.373 72.6442 305.533 72.2575 305.853 71.9509C306.186 71.6309 306.6 71.4709 307.093 71.4709C307.586 71.4709 307.993 71.6309 308.313 71.9509C308.646 72.2575 308.813 72.6442 308.813 73.1109C308.813 73.5775 308.646 73.9709 308.313 74.2909C307.993 74.5975 307.586 74.7509 307.093 74.7509ZM308.473 76.0709V87.1509H305.673V76.0709H308.473ZM317.379 75.9109C318.699 75.9109 319.766 76.3309 320.579 77.1709C321.393 77.9975 321.799 79.1575 321.799 80.6509V87.1509H318.999V81.0309C318.999 80.1509 318.779 79.4775 318.339 79.0109C317.899 78.5309 317.299 78.2909 316.539 78.2909C315.766 78.2909 315.153 78.5309 314.699 79.0109C314.259 79.4775 314.039 80.1509 314.039 81.0309V87.1509H311.239V76.0709H314.039V77.4509C314.413 76.9709 314.886 76.5975 315.459 76.3309C316.046 76.0509 316.686 75.9109 317.379 75.9109ZM323.742 81.5709C323.742 80.4509 323.962 79.4575 324.402 78.5909C324.855 77.7242 325.469 77.0575 326.242 76.5909C327.015 76.1242 327.875 75.8909 328.822 75.8909C329.542 75.8909 330.229 76.0509 330.882 76.3709C331.535 76.6775 332.055 77.0909 332.442 77.6109V72.3509H335.282V87.1509H332.442V85.5109C332.095 86.0575 331.609 86.4975 330.982 86.8309C330.355 87.1642 329.629 87.3309 328.802 87.3309C327.869 87.3309 327.015 87.0909 326.242 86.6109C325.469 86.1309 324.855 85.4575 324.402 84.5909C323.962 83.7109 323.742 82.7042 323.742 81.5709ZM332.462 81.6109C332.462 80.9309 332.329 80.3509 332.062 79.8709C331.795 79.3775 331.435 79.0042 330.982 78.7509C330.529 78.4842 330.042 78.3509 329.522 78.3509C329.002 78.3509 328.522 78.4775 328.082 78.7309C327.642 78.9842 327.282 79.3575 327.002 79.8509C326.735 80.3309 326.602 80.9042 326.602 81.5709C326.602 82.2375 326.735 82.8242 327.002 83.3309C327.282 83.8242 327.642 84.2042 328.082 84.4709C328.535 84.7375 329.015 84.8709 329.522 84.8709C330.042 84.8709 330.529 84.7442 330.982 84.4909C331.435 84.2242 331.795 83.8509 332.062 83.3709C332.329 82.8775 332.462 82.2909 332.462 81.6109ZM348.317 81.3709C348.317 81.7709 348.29 82.1309 348.237 82.4509H340.137C340.203 83.2509 340.483 83.8775 340.977 84.3309C341.47 84.7842 342.077 85.0109 342.797 85.0109C343.837 85.0109 344.577 84.5642 345.017 83.6709H348.037C347.717 84.7375 347.103 85.6175 346.197 86.3109C345.29 86.9909 344.177 87.3309 342.857 87.3309C341.79 87.3309 340.83 87.0975 339.977 86.6309C339.137 86.1509 338.477 85.4775 337.997 84.6109C337.53 83.7442 337.297 82.7442 337.297 81.6109C337.297 80.4642 337.53 79.4575 337.997 78.5909C338.463 77.7242 339.117 77.0575 339.957 76.5909C340.797 76.1242 341.763 75.8909 342.857 75.8909C343.91 75.8909 344.85 76.1175 345.677 76.5709C346.517 77.0242 347.163 77.6709 347.617 78.5109C348.083 79.3375 348.317 80.2909 348.317 81.3709ZM345.417 80.5709C345.403 79.8509 345.143 79.2775 344.637 78.8509C344.13 78.4109 343.51 78.1909 342.777 78.1909C342.083 78.1909 341.497 78.4042 341.017 78.8309C340.55 79.2442 340.263 79.8242 340.157 80.5709H345.417ZM353.16 77.7909C353.52 77.2042 353.987 76.7442 354.56 76.4109C355.147 76.0775 355.814 75.9109 356.56 75.9109V78.8509H355.82C354.94 78.8509 354.274 79.0575 353.82 79.4709C353.38 79.8842 353.16 80.6042 353.16 81.6309V87.1509H350.36V76.0709H353.16V77.7909ZM373.512 81.3709C373.512 81.7709 373.485 82.1309 373.432 82.4509H365.332C365.399 83.2509 365.679 83.8775 366.172 84.3309C366.665 84.7842 367.272 85.0109 367.992 85.0109C369.032 85.0109 369.772 84.5642 370.212 83.6709H373.232C372.912 84.7375 372.299 85.6175 371.392 86.3109C370.485 86.9909 369.372 87.3309 368.052 87.3309C366.985 87.3309 366.025 87.0975 365.172 86.6309C364.332 86.1509 363.672 85.4775 363.192 84.6109C362.725 83.7442 362.492 82.7442 362.492 81.6109C362.492 80.4642 362.725 79.4575 363.192 78.5909C363.659 77.7242 364.312 77.0575 365.152 76.5909C365.992 76.1242 366.959 75.8909 368.052 75.8909C369.105 75.8909 370.045 76.1175 370.872 76.5709C371.712 77.0242 372.359 77.6709 372.812 78.5109C373.279 79.3375 373.512 80.2909 373.512 81.3709ZM370.612 80.5709C370.599 79.8509 370.339 79.2775 369.832 78.8509C369.325 78.4109 368.705 78.1909 367.972 78.1909C367.279 78.1909 366.692 78.4042 366.212 78.8309C365.745 79.2442 365.459 79.8242 365.352 80.5709H370.612ZM389.316 75.9109C390.676 75.9109 391.769 76.3309 392.596 77.1709C393.436 77.9975 393.856 79.1575 393.856 80.6509V87.1509H391.056V81.0309C391.056 80.1642 390.836 79.5042 390.396 79.0509C389.956 78.5842 389.356 78.3509 388.596 78.3509C387.836 78.3509 387.229 78.5842 386.776 79.0509C386.336 79.5042 386.116 80.1642 386.116 81.0309V87.1509H383.316V81.0309C383.316 80.1642 383.096 79.5042 382.656 79.0509C382.216 78.5842 381.616 78.3509 380.856 78.3509C380.082 78.3509 379.469 78.5842 379.016 79.0509C378.576 79.5042 378.356 80.1642 378.356 81.0309V87.1509H375.556V76.0709H378.356V77.4109C378.716 76.9442 379.176 76.5775 379.736 76.3109C380.309 76.0442 380.936 75.9109 381.616 75.9109C382.482 75.9109 383.256 76.0975 383.936 76.4709C384.616 76.8309 385.142 77.3509 385.516 78.0309C385.876 77.3909 386.396 76.8775 387.076 76.4909C387.769 76.1042 388.516 75.9109 389.316 75.9109ZM395.793 81.5709C395.793 80.4509 396.013 79.4575 396.453 78.5909C396.906 77.7242 397.513 77.0575 398.273 76.5909C399.046 76.1242 399.906 75.8909 400.853 75.8909C401.679 75.8909 402.399 76.0575 403.013 76.3909C403.639 76.7242 404.139 77.1442 404.513 77.6509V76.0709H407.333V87.1509H404.513V85.5309C404.153 86.0509 403.653 86.4842 403.013 86.8309C402.386 87.1642 401.659 87.3309 400.833 87.3309C399.899 87.3309 399.046 87.0909 398.273 86.6109C397.513 86.1309 396.906 85.4575 396.453 84.5909C396.013 83.7109 395.793 82.7042 395.793 81.5709ZM404.513 81.6109C404.513 80.9309 404.379 80.3509 404.113 79.8709C403.846 79.3775 403.486 79.0042 403.033 78.7509C402.579 78.4842 402.093 78.3509 401.573 78.3509C401.053 78.3509 400.573 78.4775 400.133 78.7309C399.693 78.9842 399.333 79.3575 399.053 79.8509C398.786 80.3309 398.653 80.9042 398.653 81.5709C398.653 82.2375 398.786 82.8242 399.053 83.3309C399.333 83.8242 399.693 84.2042 400.133 84.4709C400.586 84.7375 401.066 84.8709 401.573 84.8709C402.093 84.8709 402.579 84.7442 403.033 84.4909C403.486 84.2242 403.846 83.8509 404.113 83.3709C404.379 82.8775 404.513 82.2909 404.513 81.6109ZM411.488 74.7509C410.994 74.7509 410.581 74.5975 410.248 74.2909C409.928 73.9709 409.768 73.5775 409.768 73.1109C409.768 72.6442 409.928 72.2575 410.248 71.9509C410.581 71.6309 410.994 71.4709 411.488 71.4709C411.981 71.4709 412.388 71.6309 412.708 71.9509C413.041 72.2575 413.208 72.6442 413.208 73.1109C413.208 73.5775 413.041 73.9709 412.708 74.2909C412.388 74.5975 411.981 74.7509 411.488 74.7509ZM412.868 76.0709V87.1509H410.068V76.0709H412.868ZM418.434 72.3509V87.1509H415.634V72.3509H418.434Z" fill="#373737"/>
</svg>
