<svg width="33" height="32" viewBox="0 0 33 32" fill="none" xmlns="http://www.w3.org/2000/svg">
<path d="M13.5855 1V5.28571L11.4427 6.35714L8.22838 3.14286L3.94266 7.42857L7.15695 10.6429L6.08552 12.7857H1.7998V19.2143H6.08552L7.15695 21.3571L3.94266 24.5714L8.22838 28.8571L11.4427 25.6429L13.5855 26.7143V31H20.0141V26.7143L22.1569 25.6429L25.3712 28.8571L29.6569 24.5714L26.4427 21.3571L27.5141 19.2143H31.7998V12.7857H27.5141L26.4427 10.6429L29.6569 7.42857L25.3712 3.14286L22.1569 6.35714L20.0141 5.28571V1H13.5855Z" stroke="#111111" stroke-width="2" stroke-linecap="round" stroke-linejoin="round"/>
<path d="M16.7998 20.2857C19.1667 20.2857 21.0855 18.3669 21.0855 16C21.0855 13.6331 19.1667 11.7143 16.7998 11.7143C14.4329 11.7143 12.5141 13.6331 12.5141 16C12.5141 18.3669 14.4329 20.2857 16.7998 20.2857Z" stroke="#111111" stroke-width="2" stroke-linecap="round" stroke-linejoin="round"/>
</svg>
