<svg width="25" height="21" viewBox="0 0 25 21" fill="none" xmlns="http://www.w3.org/2000/svg">
<path d="M24.8785 3.0748C23.9948 3.46506 23.0455 3.72875 22.0475 3.84793C23.0773 3.23385 23.8477 2.26735 24.215 1.12878C23.2475 1.7015 22.1886 2.10463 21.0844 2.32065C20.3419 1.5305 19.3584 1.00677 18.2865 0.830783C17.2147 0.654795 16.1146 0.836391 15.157 1.34738C14.1993 1.85837 13.4378 2.67016 12.9905 3.65671C12.5432 4.64327 12.4353 5.74939 12.6834 6.80335C10.7231 6.70526 8.80531 6.19745 7.05463 5.31289C5.30394 4.42832 3.75943 3.18677 2.52136 1.66881C2.09803 2.39659 1.85461 3.2404 1.85461 4.13905C1.85414 4.94804 2.05404 5.74464 2.43657 6.45817C2.81909 7.1717 3.37243 7.7801 4.04747 8.22938C3.2646 8.20455 2.499 7.99373 1.8144 7.61446V7.67774C1.81432 8.81239 2.20813 9.91211 2.92901 10.7903C3.64989 11.6685 4.65344 12.2711 5.76937 12.4959C5.04313 12.6917 4.28172 12.7206 3.54265 12.5802C3.8575 13.5565 4.47079 14.4103 5.29668 15.0219C6.12257 15.6336 7.1197 15.9725 8.14849 15.9913C6.40207 17.3577 4.24526 18.0988 2.025 18.0955C1.63171 18.0957 1.23875 18.0728 0.848145 18.027C3.10183 19.4711 5.72528 20.2376 8.4046 20.2346C17.4745 20.2346 22.4327 12.7479 22.4327 6.25488C22.4327 6.04393 22.4274 5.83087 22.4179 5.61992C23.3824 4.92481 24.2149 4.06405 24.8764 3.07796L24.8785 3.0748Z" fill="white"/>
</svg>
