<svg width="16" height="15" viewBox="0 0 16 15" fill="none" xmlns="http://www.w3.org/2000/svg">
<path d="M13.5966 4.89075C13.6139 4.76025 13.6229 4.62975 13.6229 4.5C13.6229 2.71575 12.0156 1.284 10.2321 1.52625C9.71236 0.6015 8.72236 0 7.62286 0C6.52336 0 5.53336 0.6015 5.01361 1.52625C3.22636 1.284 1.62286 2.71575 1.62286 4.5C1.62286 4.62975 1.63186 4.76025 1.64911 4.89075C0.724364 5.41125 0.122864 6.40125 0.122864 7.5C0.122864 8.59875 0.724364 9.58875 1.64911 10.1093C1.63181 10.2388 1.62304 10.3693 1.62286 10.5C1.62286 12.2843 3.22636 13.7122 5.01361 13.4738C5.53336 14.3985 6.52336 15 7.62286 15C8.72236 15 9.71236 14.3985 10.2321 13.4738C12.0156 13.7122 13.6229 12.2843 13.6229 10.5C13.6229 10.3702 13.6139 10.2397 13.5966 10.1093C14.5214 9.58875 15.1229 8.59875 15.1229 7.5C15.1229 6.40125 14.5214 5.41125 13.5966 4.89075ZM6.83911 10.812L4.08886 8.0265L5.15686 6.9735L6.84961 8.688L10.0949 5.4675L11.1509 6.5325L6.83911 10.812Z" fill="#E0A800"/>
</svg>
