<svg width="19" height="25" viewBox="0 0 19 25" fill="none" xmlns="http://www.w3.org/2000/svg">
<path fill-rule="evenodd" clip-rule="evenodd" d="M9.00695 0C9.27234 0 9.52685 0.0936444 9.71451 0.260333C9.90216 0.427021 10.0076 0.653098 10.0076 0.888831V21.8528L16.3036 16.2585C16.4915 16.0916 16.7463 15.9978 17.012 15.9978C17.2777 15.9978 17.5326 16.0916 17.7205 16.2585C17.9083 16.4254 18.0139 16.6518 18.0139 16.8878C18.0139 17.1238 17.9083 17.3502 17.7205 17.5171L9.7154 24.6277C9.62245 24.7105 9.51203 24.7762 9.39046 24.821C9.26889 24.8658 9.13857 24.8889 9.00695 24.8889C8.87533 24.8889 8.74501 24.8658 8.62344 24.821C8.50188 24.7762 8.39145 24.7105 8.2985 24.6277L0.293448 17.5171C0.105556 17.3502 -6.26056e-09 17.1238 0 16.8878C6.26056e-09 16.6518 0.105556 16.4254 0.293448 16.2585C0.48134 16.0916 0.736177 15.9978 1.0019 15.9978C1.26762 15.9978 1.52245 16.0916 1.71034 16.2585L8.00632 21.8528V0.888831C8.00632 0.653098 8.11174 0.427021 8.2994 0.260333C8.48705 0.0936444 8.74157 0 9.00695 0Z" fill="white"/>
</svg>
