<svg width="56" height="56" viewBox="0 0 56 56" fill="none" xmlns="http://www.w3.org/2000/svg">
<path d="M28.3499 55.0917C43.0384 55.0917 54.9458 43.1843 54.9458 28.4958C54.9458 13.8072 43.0384 1.89978 28.3499 1.89978C13.6613 1.89978 1.75391 13.8072 1.75391 28.4958C1.75391 43.1843 13.6613 55.0917 28.3499 55.0917Z" fill="#f0f0f0"/>
<path d="M13.6519 11.5935C15.1279 10.5692 16.9313 10.1288 18.7133 10.3575C20.519 10.3993 22.2442 11.1131 23.5514 12.3596" stroke="#111111" stroke-width="2" stroke-miterlimit="10" stroke-linecap="round" stroke-linejoin="round"/>
<path d="M42.517 16.9834C41.198 15.7636 39.4733 15.0765 37.6768 15.055C35.8829 14.845 34.0752 15.3118 32.6073 16.3641" stroke="#111111" stroke-width="2" stroke-miterlimit="10" stroke-linecap="round" stroke-linejoin="round"/>
<path d="M21.0882 22.386C21.0649 23.2871 20.6906 24.1434 20.0451 24.7725C19.3996 25.4016 18.5339 25.7537 17.6325 25.7537C16.7311 25.7537 15.8654 25.4016 15.2199 24.7725C14.5743 24.1434 14.2 23.2871 14.1768 22.386C14.1768 20.4796 15.7261 18.9303 17.6325 18.9303C19.5389 18.9303 21.0882 20.4796 21.0882 22.386Z" fill="#111111"/>
<path d="M40.6707 22.386C40.6475 23.2871 40.2732 24.1434 39.6276 24.7725C38.9821 25.4016 38.1164 25.7537 37.215 25.7537C36.3136 25.7537 35.4479 25.4016 34.8024 24.7725C34.1568 24.1434 33.7825 23.2871 33.7593 22.386C33.7593 20.4796 35.3086 18.9303 37.215 18.9303C39.1214 18.9303 40.6707 20.4796 40.6707 22.386Z" fill="#111111"/>
<path d="M50.6279 41.9341C53.1527 37.8005 54.4902 33.0515 54.4937 28.2079C54.5283 13.5741 42.6936 1.68637 28.062 1.65181C13.4282 1.61725 1.54049 13.4508 1.50593 28.0835C1.47138 42.7151 13.3049 54.6051 27.9376 54.6396C33.7055 54.6619 39.3217 52.793 43.9261 49.3189" stroke="#111111" stroke-width="2" stroke-miterlimit="10" stroke-linecap="round" stroke-linejoin="round"/>
<path d="M37.1334 33.0197C43.1269 33.0197 47.9855 28.161 47.9855 22.1676C47.9855 16.1741 43.1269 11.3154 37.1334 11.3154C31.1399 11.3154 26.2812 16.1741 26.2812 22.1676C26.2812 28.161 31.1399 33.0197 37.1334 33.0197Z" stroke="#111111" stroke-width="2" stroke-miterlimit="10" stroke-linecap="round" stroke-linejoin="round"/>
<path d="M48.3749 22.337C48.3749 22.337 50.9229 22.9706 50.59 26.9596C50.2571 30.9487 46.4789 36.1311 46.4789 36.1311C46.4789 36.1311 44.152 38.852 44.7971 41.1097C45.6219 43.9964 49.7664 48.5234 49.6121 51.0276" stroke="#111111" stroke-width="2" stroke-miterlimit="10" stroke-linecap="round" stroke-linejoin="round"/>
<path d="M30.4556 40.8168C30.4556 43.4454 28.3247 45.5763 25.6961 45.5763C23.0674 45.5763 20.9365 43.4454 20.9365 40.8168C20.9365 38.1882 23.0674 36.0573 25.6961 36.0573C28.3247 36.0573 30.4556 38.1882 30.4556 40.8168Z" stroke="#111111" stroke-width="2"/>
</svg>
