<svg width="30" height="24" viewBox="0 0 30 24" fill="none" xmlns="http://www.w3.org/2000/svg">
<path d="M26 3.05176e-05H0V20H26V3.05176e-05ZM24 18H2V2.00003H24V18Z" fill="#111111"/>
<path d="M28 5.00003V22H5V24H30V5.00003H28Z" fill="#111111"/>
<path d="M13 14.9038C15.4812 14.9038 17.5 12.7077 17.5 10.0084C17.5 7.30909 15.4812 5.11303 13 5.11303C10.5187 5.11303 8.5 7.30903 8.5 10.0084C8.5 12.7078 10.5187 14.9038 13 14.9038ZM13 7.11303C14.3785 7.11303 15.5 8.41191 15.5 10.0084C15.5 11.6049 14.3785 12.9038 13 12.9038C11.6215 12.9038 10.5 11.6049 10.5 10.0084C10.5 8.41191 11.6215 7.11303 13 7.11303Z" fill="#111111"/>
<path d="M4 4.50003H6V15.5H4V4.50003Z" fill="#111111"/>
<path d="M20 4.50003H22V15.5H20V4.50003Z" fill="#111111"/>
</svg>
