<svg width="29" height="24" viewBox="0 0 29 24" fill="none" xmlns="http://www.w3.org/2000/svg">
<path d="M18.7658 8.67505C19.1889 8.67516 19.5973 8.83064 19.9133 9.11198C20.2293 9.39332 20.431 9.78091 20.4801 10.2012L20.4922 10.4014V17.9422C20.5035 19.5164 19.8971 21.0323 18.8033 22.1645C17.7095 23.2967 16.2154 23.9549 14.6417 23.9978C13.0681 24.0407 11.5403 23.465 10.3863 22.3941C9.23242 21.3233 8.54431 19.8427 8.46975 18.2702L8.46111 17.9422V10.4014C8.46122 9.97832 8.6167 9.56998 8.89804 9.25395C9.17938 8.93792 9.56697 8.73622 9.98723 8.68714L10.1875 8.67505H18.7658ZM18.7658 10.4014H10.1875V17.9422C10.185 19.0568 10.6166 20.1286 11.3908 20.9305C12.165 21.7323 13.221 22.2013 14.335 22.2378C15.449 22.2744 16.5335 21.8758 17.3587 21.1265C18.1839 20.3772 18.6848 19.336 18.7555 18.2236L18.7658 17.9422V10.4014ZM7.19914 8.67505C6.94794 9.10849 6.79473 9.59169 6.75028 10.0907L6.73474 10.4014H2.43607V16.8581C2.43589 17.3933 2.5698 17.9201 2.82557 18.3903C3.08134 18.8605 3.45083 19.2591 3.90029 19.5497C4.34975 19.8404 4.86486 20.0138 5.39859 20.0542C5.93232 20.0946 6.46766 20.0006 6.95572 19.7808C7.09383 20.3488 7.29409 20.8926 7.55132 21.4036C6.82437 21.7089 6.03481 21.8354 5.24886 21.7725C4.46292 21.7096 3.70352 21.4592 3.03437 21.0422C2.36522 20.6252 1.80584 20.0538 1.40315 19.3759C1.00046 18.698 0.766216 17.9335 0.720058 17.1464L0.711426 16.8563V10.4014C0.711482 9.97858 0.866724 9.57046 1.14771 9.25447C1.42869 8.93849 1.81587 8.73661 2.23581 8.68714L2.4378 8.67505H7.19741H7.19914ZM21.7559 8.67505H26.5621C26.9852 8.67516 27.3936 8.83064 27.7096 9.11198C28.0256 9.39332 28.2273 9.78091 28.2764 10.2012L28.2885 10.4014V16.8581C28.2886 17.6745 28.0859 18.4781 27.6987 19.1969C27.3115 19.9156 26.7518 20.527 26.07 20.976C25.3882 21.4251 24.6055 21.6978 23.7923 21.7698C22.9791 21.8417 22.1607 21.7105 21.4106 21.3881C21.6661 20.8736 21.8664 20.3298 22.0028 19.7601C22.4717 19.9789 22.9867 20.0809 23.5036 20.0573C24.0206 20.0337 24.5241 19.8852 24.9712 19.6246C25.4182 19.364 25.7955 18.999 26.0708 18.5608C26.3461 18.1226 26.5111 17.6243 26.5518 17.1084L26.5621 16.8581V10.4014H22.2186L22.2082 10.1442C22.1705 9.62657 22.0159 9.12425 21.7559 8.67505ZM14.4741 3.05176e-05C15.494 3.05176e-05 16.4721 0.40518 17.1932 1.12635C17.9144 1.84752 18.3196 2.82564 18.3196 3.84553C18.3196 4.86541 17.9144 5.84353 17.1932 6.5647C16.4721 7.28587 15.494 7.69102 14.4741 7.69102C13.4542 7.69102 12.4761 7.28587 11.7549 6.5647C11.0337 5.84353 10.6286 4.86541 10.6286 3.84553C10.6286 2.82564 11.0337 1.84752 11.7549 1.12635C12.4761 0.40518 13.4542 3.05176e-05 14.4741 3.05176e-05ZM23.0835 1.08419C23.9596 1.08419 24.7999 1.43223 25.4194 2.05174C26.0389 2.67125 26.3869 3.51149 26.3869 4.38761C26.3869 5.26373 26.0389 6.10396 25.4194 6.72347C24.7999 7.34298 23.9596 7.69102 23.0835 7.69102C22.2074 7.69102 21.3671 7.34298 20.7476 6.72347C20.1281 6.10396 19.7801 5.26373 19.7801 4.38761C19.7801 3.51149 20.1281 2.67125 20.7476 2.05174C21.3671 1.43223 22.2074 1.08419 23.0835 1.08419ZM5.89055 1.08419C6.76667 1.08419 7.6069 1.43223 8.22641 2.05174C8.84592 2.67125 9.19396 3.51149 9.19396 4.38761C9.19396 5.26373 8.84592 6.10396 8.22641 6.72347C7.6069 7.34298 6.76667 7.69102 5.89055 7.69102C5.01443 7.69102 4.17419 7.34298 3.55468 6.72347C2.93517 6.10396 2.58713 5.26373 2.58713 4.38761C2.58713 3.51149 2.93517 2.67125 3.55468 2.05174C4.17419 1.43223 5.01443 1.08419 5.89055 1.08419ZM14.4741 1.7264C13.912 1.7264 13.373 1.94967 12.9756 2.34708C12.5782 2.74449 12.3549 3.2835 12.3549 3.84553C12.3549 4.40755 12.5782 4.94656 12.9756 5.34397C13.373 5.74138 13.912 5.96465 14.4741 5.96465C15.0361 5.96465 15.5751 5.74138 15.9725 5.34397C16.3699 4.94656 16.5932 4.40755 16.5932 3.84553C16.5932 3.2835 16.3699 2.74449 15.9725 2.34708C15.5751 1.94967 15.0361 1.7264 14.4741 1.7264ZM23.0835 2.81057C22.6652 2.81057 22.2641 2.97672 21.9684 3.27247C21.6726 3.56822 21.5065 3.96935 21.5065 4.38761C21.5065 4.80586 21.6726 5.20699 21.9684 5.50274C22.2641 5.7985 22.6652 5.96465 23.0835 5.96465C23.5018 5.96465 23.9029 5.7985 24.1986 5.50274C24.4944 5.20699 24.6605 4.80586 24.6605 4.38761C24.6605 3.96935 24.4944 3.56822 24.1986 3.27247C23.9029 2.97672 23.5018 2.81057 23.0835 2.81057ZM5.89055 2.81057C5.47229 2.81057 5.07116 2.97672 4.77541 3.27247C4.47966 3.56822 4.3135 3.96935 4.3135 4.38761C4.3135 4.80586 4.47966 5.20699 4.77541 5.50274C5.07116 5.7985 5.47229 5.96465 5.89055 5.96465C6.3088 5.96465 6.70993 5.7985 7.00568 5.50274C7.30143 5.20699 7.46759 4.80586 7.46759 4.38761C7.46759 3.96935 7.30143 3.56822 7.00568 3.27247C6.70993 2.97672 6.3088 2.81057 5.89055 2.81057Z" fill="#111111"/>
</svg>
