<svg width="100" height="99" viewBox="0 0 100 99" fill="none" xmlns="http://www.w3.org/2000/svg">
<path d="M49.9495 97.6513C76.4903 97.6513 98.0059 76.1358 98.0059 49.5949C98.0059 23.0541 76.4903 1.53853 49.9495 1.53853C23.4087 1.53853 1.89307 23.0541 1.89307 49.5949C1.89307 76.1358 23.4087 97.6513 49.9495 97.6513Z" fill="#A589D2"/>
<path d="M49.9495 97.6513C76.4903 97.6513 98.0059 76.1358 98.0059 49.5949C98.0059 23.0541 76.4903 1.53853 49.9495 1.53853C23.4087 1.53853 1.89307 23.0541 1.89307 49.5949C1.89307 76.1358 23.4087 97.6513 49.9495 97.6513Z" stroke="#373737" stroke-width="2" stroke-miterlimit="10" stroke-linecap="round" stroke-linejoin="round"/>
<path d="M14.5839 37.9093C14.5839 37.9093 12.5927 55.7758 28.9173 54.4553C34.3915 54.0123 45.2502 53.0972 45.3567 37.0234C45.3651 35.565 45.34 33.6824 43.6622 31.5282C41.437 28.672 36.1988 27.4121 22.883 28.5571C22.883 28.5571 15.6829 28.3502 14.5839 37.9093V37.9093Z" stroke="#373737" stroke-width="2" stroke-miterlimit="10" stroke-linecap="round" stroke-linejoin="round"/>
<path d="M14.7324 36.7956L13.8276 29.7522L21.8363 28.649" stroke="#373737" stroke-width="2" stroke-miterlimit="10" stroke-linecap="round" stroke-linejoin="round"/>
<path d="M85.3275 37.9093C85.3275 37.9093 87.3187 55.7758 70.9942 54.4553C65.5199 54.0123 54.6613 53.0972 54.5568 37.0234C54.5463 35.565 54.5735 33.6824 56.2492 31.5282C58.4744 28.672 63.7126 27.4121 77.0284 28.5571C77.0284 28.5571 84.2285 28.3502 85.3275 37.9093V37.9093Z" stroke="#373737" stroke-width="2" stroke-miterlimit="10" stroke-linecap="round" stroke-linejoin="round"/>
<path d="M40.9565 29.4528C40.9565 29.4528 49.5733 34.7453 59.0446 29.4528" stroke="#373737" stroke-width="2" stroke-miterlimit="10" stroke-linecap="round" stroke-linejoin="round"/>
<path d="M45.3569 39.6928C45.3569 39.6928 49.8032 31.8575 54.5148 39.6928" stroke="#373737" stroke-width="2" stroke-miterlimit="10" stroke-linecap="round" stroke-linejoin="round"/>
<path d="M85.1665 36.8015L86.0712 29.756L78.0625 28.6548" stroke="#373737" stroke-width="2" stroke-miterlimit="10" stroke-linecap="round" stroke-linejoin="round"/>
<path d="M46.0757 36.9958C46.0757 36.9958 49.8283 29.1605 53.8065 36.9958" stroke="#373737" stroke-width="2" stroke-miterlimit="10" stroke-linecap="round" stroke-linejoin="round"/>
<path d="M37.4129 39.1479C37.3707 40.7823 36.6918 42.3356 35.5209 43.4767C34.35 44.6178 32.7797 45.2564 31.1447 45.2564C29.5097 45.2564 27.9394 44.6178 26.7685 43.4767C25.5976 42.3356 24.9187 40.7823 24.8765 39.1479C24.8765 35.6899 27.6867 32.8797 31.1447 32.8797C34.6027 32.8797 37.4129 35.6899 37.4129 39.1479Z" fill="#373737"/>
<path d="M75.0223 39.1479C74.9801 40.7823 74.3012 42.3356 73.1302 43.4767C71.9593 44.6178 70.389 45.2564 68.7541 45.2564C67.1191 45.2564 65.5488 44.6178 64.3779 43.4767C63.207 42.3356 62.528 40.7823 62.4858 39.1479C62.4858 35.6899 65.2961 32.8797 68.7541 32.8797C72.212 32.8797 75.0223 35.6899 75.0223 39.1479Z" fill="#373737"/>
<path d="M70.457 67.9946C56.7212 75.3577 41.1092 75.6356 29.4419 67.9946" stroke="#373737" stroke-width="2" stroke-miterlimit="10" stroke-linecap="round" stroke-linejoin="round"/>
</svg>
