<svg width="24" height="25" viewBox="0 0 24 25" fill="none" xmlns="http://www.w3.org/2000/svg">
<path d="M22.9671 0.313431H0.956962C0.427642 0.313431 0 0.749101 0 1.28836V23.7116C0 24.2509 0.427642 24.6866 0.956962 24.6866H22.9671C23.4964 24.6866 23.924 24.2509 23.924 23.7116V1.28836C23.924 0.749101 23.4964 0.313431 22.9671 0.313431ZM20.2039 7.42734H18.2929C16.7947 7.42734 16.5046 8.15244 16.5046 9.21877V11.5677H20.0812L19.6147 15.245H16.5046V24.6866H12.7754V15.2481H9.65634V11.5677H12.7754V8.85621C12.7754 5.70903 14.6625 3.99377 17.4197 3.99377C18.7415 3.99377 19.8749 4.09431 20.2069 4.14001V7.42734H20.2039Z" fill="white"/>
</svg>
