<svg width="25" height="24" viewBox="0 0 25 24" fill="none" xmlns="http://www.w3.org/2000/svg">
<path d="M18.1933 12C18.1906 11.1036 18.0945 10.2099 17.9067 9.33334H20.3067C20.1831 8.96771 20.0338 8.61127 19.86 8.26667H17.6267C17.2068 6.86404 16.5557 5.5414 15.7 4.35334C15.1533 4.12347 14.5833 3.95359 14 3.84667C15.1722 5.10616 16.057 6.60513 16.5933 8.24H13V3.73334H12V8.24667H8.40667C8.94405 6.60883 9.83123 5.10747 11.0067 3.84667C10.4259 3.95181 9.85811 4.11945 9.31334 4.34667C8.45431 5.52975 7.79865 6.84784 7.37334 8.24667H5.12667C4.94972 8.59756 4.79822 8.96072 4.67334 9.33334H7.09334C6.90553 10.2099 6.80946 11.1036 6.80667 12C6.80852 12.9805 6.92033 13.9577 7.14001 14.9133H4.78001C4.91793 15.287 5.0828 15.6502 5.27334 16H7.42667C7.83481 17.2772 8.43988 18.4828 9.22001 19.5733C9.77865 19.8129 10.3623 19.9896 10.96 20.1C9.87195 18.9132 9.03518 17.5186 8.50001 16H12.0067V20.2267H13.0067V16H16.5C15.963 17.5192 15.1239 18.9139 14.0333 20.1C14.6339 19.9858 15.2198 19.8047 15.78 19.56C16.5589 18.4736 17.1639 17.2725 17.5733 16H19.7067C19.8963 15.6567 20.0612 15.3002 20.2 14.9333H17.8333C18.0635 13.9722 18.1843 12.9882 18.1933 12ZM12 14.9133H8.17334C7.70399 13.0786 7.68341 11.1577 8.11334 9.31334H12V14.9133ZM16.8267 14.9133H13V9.33334H16.8867C17.0782 10.2092 17.1721 11.1035 17.1667 12C17.1721 12.9813 17.0579 13.9596 16.8267 14.9133Z" fill="#111111"/>
<path d="M12.4999 1.33336C10.3903 1.33336 8.32796 1.95895 6.57384 3.13102C4.81972 4.30308 3.45254 5.96899 2.64521 7.91807C1.83787 9.86715 1.62664 12.0119 2.03821 14.081C2.44979 16.1501 3.46569 18.0507 4.95745 19.5425C6.44921 21.0343 8.34983 22.0502 10.419 22.4617C12.4881 22.8733 14.6328 22.6621 16.5819 21.8547C18.531 21.0474 20.1969 19.6802 21.3689 17.9261C22.541 16.172 23.1666 14.1097 23.1666 12C23.1666 9.17105 22.0428 6.45794 20.0424 4.45755C18.042 2.45717 15.3289 1.33336 12.4999 1.33336ZM12.4999 21.3334C10.654 21.3334 8.84946 20.786 7.3146 19.7604C5.77974 18.7348 4.58347 17.2772 3.87705 15.5717C3.17063 13.8663 2.9858 11.9897 3.34593 10.1792C3.70606 8.36869 4.59497 6.70565 5.90026 5.40036C7.20555 4.09507 8.86859 3.20616 10.6791 2.84603C12.4896 2.4859 14.3662 2.67073 16.0716 3.37715C17.7771 4.08357 19.2347 5.27984 20.2603 6.8147C21.2859 8.34956 21.8333 10.1541 21.8333 12C21.8333 14.4754 20.8499 16.8493 19.0996 18.5997C17.3492 20.35 14.9753 21.3334 12.4999 21.3334Z" fill="#111111"/>
</svg>
