<svg width="30" height="30" viewBox="0 0 30 30" fill="none" xmlns="http://www.w3.org/2000/svg">
<path d="M10.1673 18.4009C10.2771 18.3179 10.4026 18.2578 10.5362 18.2245C10.6698 18.1911 10.8088 18.1851 10.9448 18.2067C11.0808 18.2284 11.211 18.2773 11.3277 18.3505C11.4443 18.4237 11.545 18.5197 11.6236 18.6327C11.8552 18.8875 12.1171 19.1128 12.4036 19.3036C13.1726 19.8141 14.0771 20.082 15 20.0727C16.1659 20.0727 17.0277 19.6868 17.5964 19.3064C17.8829 19.1155 18.1448 18.8902 18.3764 18.6355L18.405 18.6C18.5687 18.3835 18.8116 18.241 19.0804 18.2036C19.3491 18.1663 19.6217 18.2373 19.8382 18.4009C20.0546 18.5646 20.1972 18.8075 20.2345 19.0763C20.2719 19.345 20.2009 19.6176 20.0373 19.8341L20.0005 19.8805C19.9827 19.9023 19.9595 19.9323 19.9295 19.9664C19.8695 20.0345 19.7864 20.1286 19.6786 20.2364C19.3888 20.5241 19.0714 20.7826 18.7309 21.0082C17.6257 21.7418 16.3265 22.1283 15 22.1182C13.6735 22.1283 12.3743 21.7418 11.2691 21.0082C10.9287 20.7826 10.6112 20.5241 10.3214 20.2364C10.2077 20.1236 10.1003 20.0048 9.99955 19.8805C9.64636 19.4277 9.69546 18.7555 10.1673 18.4009Z" fill="#373737"/>
<path fill-rule="evenodd" clip-rule="evenodd" d="M15 0C6.71591 0 0 6.71591 0 15C0 23.2841 6.71591 30 15 30C23.2841 30 30 23.2841 30 15C30 6.71591 23.2841 0 15 0ZM2.04545 15C2.04545 11.5642 3.4103 8.2692 5.83975 5.83975C8.2692 3.4103 11.5642 2.04545 15 2.04545C18.4358 2.04545 21.7308 3.4103 24.1602 5.83975C26.5897 8.2692 27.9545 11.5642 27.9545 15C27.9545 18.4358 26.5897 21.7308 24.1602 24.1602C21.7308 26.5897 18.4358 27.9545 15 27.9545C11.5642 27.9545 8.2692 26.5897 5.83975 24.1602C3.4103 21.7308 2.04545 18.4358 2.04545 15Z" fill="#373737"/>
<path d="M10.9091 13.2955C10.9091 13.7475 10.7295 14.1811 10.4098 14.5008C10.0902 14.8204 9.65662 15 9.20455 15C8.75247 15 8.31891 14.8204 7.99925 14.5008C7.67959 14.1811 7.5 13.7475 7.5 13.2955C7.5 12.8434 7.67959 12.4098 7.99925 12.0902C8.31891 11.7705 8.75247 11.5909 9.20455 11.5909C9.65662 11.5909 10.0902 11.7705 10.4098 12.0902C10.7295 12.4098 10.9091 12.8434 10.9091 13.2955ZM20.7955 15C21.2475 15 21.6811 14.8204 22.0008 14.5008C22.3204 14.1811 22.5 13.7475 22.5 13.2955C22.5 12.8434 22.3204 12.4098 22.0008 12.0902C21.6811 11.7705 21.2475 11.5909 20.7955 11.5909C20.3434 11.5909 19.9098 11.7705 19.5902 12.0902C19.2705 12.4098 19.0909 12.8434 19.0909 13.2955C19.0909 13.7475 19.2705 14.1811 19.5902 14.5008C19.9098 14.8204 20.3434 15 20.7955 15Z" fill="#373737"/>
</svg>
