<svg width="36" height="32" viewBox="0 0 36 32" fill="none" xmlns="http://www.w3.org/2000/svg">
<path d="M1 1H34.6V22.6H17.8L8.2 31V22.6H1V1Z" stroke="#111111" stroke-width="2" stroke-linecap="round" stroke-linejoin="round"/>
<path d="M17.52 6.63949V17.5443H16.0762V12.6004H10.4438V17.5443H9V6.63949H10.4438V11.427H16.0762V6.63949H17.52Z" fill="#111111"/>
<path d="M20.731 7.57821C20.456 7.57821 20.2233 7.48434 20.0329 7.29659C19.8425 7.10885 19.7473 6.87938 19.7473 6.6082C19.7473 6.33701 19.8425 6.10754 20.0329 5.9198C20.2233 5.73206 20.456 5.63818 20.731 5.63818C20.9954 5.63818 21.2176 5.73206 21.3974 5.9198C21.5878 6.10754 21.683 6.33701 21.683 6.6082C21.683 6.87938 21.5878 7.10885 21.3974 7.29659C21.2176 7.48434 20.9954 7.57821 20.731 7.57821ZM21.4291 8.97065V17.5443H19.9853V8.97065H21.4291Z" fill="#111111"/>
<path d="M25.762 6.63949L25.5875 14.4622H24.3817L24.2071 6.63949H25.762ZM25.048 17.6382C24.773 17.6382 24.5403 17.5443 24.3499 17.3566C24.1595 17.1688 24.0644 16.9394 24.0644 16.6682C24.0644 16.397 24.1595 16.1675 24.3499 15.9798C24.5403 15.792 24.773 15.6982 25.048 15.6982C25.3125 15.6982 25.5346 15.792 25.7144 15.9798C25.9048 16.1675 26 16.397 26 16.6682C26 16.9394 25.9048 17.1688 25.7144 17.3566C25.5346 17.5443 25.3125 17.6382 25.048 17.6382Z" fill="#111111"/>
</svg>
