<svg width="142" height="73" viewBox="0 0 142 73" fill="none" xmlns="http://www.w3.org/2000/svg">
<path d="M37.0996 72.7C30.4329 72.7 24.2996 71.1333 18.6996 68C13.1663 64.8667 8.76628 60.5333 5.49961 55C2.23294 49.4667 0.599609 43.2333 0.599609 36.3C0.599609 29.3667 2.23294 23.1333 5.49961 17.6C8.76628 12.0667 13.1663 7.76666 18.6996 4.7C24.2996 1.56666 30.4329 -2.86102e-06 37.0996 -2.86102e-06C43.7663 -2.86102e-06 49.8663 1.56666 55.3996 4.7C60.9329 7.76666 65.2996 12.0667 68.4996 17.6C71.7663 23.1333 73.3996 29.3667 73.3996 36.3C73.3996 43.2333 71.7663 49.4667 68.4996 55C65.2996 60.5333 60.8996 64.8667 55.2996 68C49.7663 71.1333 43.6996 72.7 37.0996 72.7ZM37.0996 52C41.4996 52 44.8996 50.6 47.2996 47.8C49.6996 44.9333 50.8996 41.1 50.8996 36.3C50.8996 31.4333 49.6996 27.6 47.2996 24.8C44.8996 21.9333 41.4996 20.5 37.0996 20.5C32.6329 20.5 29.1996 21.9333 26.7996 24.8C24.3996 27.6 23.1996 31.4333 23.1996 36.3C23.1996 41.1 24.3996 44.9333 26.7996 47.8C29.1996 50.6 32.6329 52 37.0996 52ZM117.008 72L103.708 46.6H103.608V72H81.4082V1.2H114.408C120.142 1.2 125.042 2.23333 129.108 4.3C133.175 6.3 136.208 9.06666 138.208 12.6C140.275 16.0667 141.308 20 141.308 24.4C141.308 29.1333 139.975 33.3333 137.308 37C134.708 40.6667 130.942 43.3 126.008 44.9L141.408 72H117.008ZM103.608 31.8H112.408C114.542 31.8 116.142 31.3333 117.208 30.4C118.275 29.4 118.808 27.8667 118.808 25.8C118.808 23.9333 118.242 22.4667 117.108 21.4C116.042 20.3333 114.475 19.8 112.408 19.8H103.608V31.8Z" fill="url(#paint0_linear)"/>
<path d="M37.0996 72.7C30.4329 72.7 24.2996 71.1333 18.6996 68C13.1663 64.8667 8.76628 60.5333 5.49961 55C2.23294 49.4667 0.599609 43.2333 0.599609 36.3C0.599609 29.3667 2.23294 23.1333 5.49961 17.6C8.76628 12.0667 13.1663 7.76666 18.6996 4.7C24.2996 1.56666 30.4329 -2.86102e-06 37.0996 -2.86102e-06C43.7663 -2.86102e-06 49.8663 1.56666 55.3996 4.7C60.9329 7.76666 65.2996 12.0667 68.4996 17.6C71.7663 23.1333 73.3996 29.3667 73.3996 36.3C73.3996 43.2333 71.7663 49.4667 68.4996 55C65.2996 60.5333 60.8996 64.8667 55.2996 68C49.7663 71.1333 43.6996 72.7 37.0996 72.7ZM37.0996 52C41.4996 52 44.8996 50.6 47.2996 47.8C49.6996 44.9333 50.8996 41.1 50.8996 36.3C50.8996 31.4333 49.6996 27.6 47.2996 24.8C44.8996 21.9333 41.4996 20.5 37.0996 20.5C32.6329 20.5 29.1996 21.9333 26.7996 24.8C24.3996 27.6 23.1996 31.4333 23.1996 36.3C23.1996 41.1 24.3996 44.9333 26.7996 47.8C29.1996 50.6 32.6329 52 37.0996 52ZM117.008 72L103.708 46.6H103.608V72H81.4082V1.2H114.408C120.142 1.2 125.042 2.23333 129.108 4.3C133.175 6.3 136.208 9.06666 138.208 12.6C140.275 16.0667 141.308 20 141.308 24.4C141.308 29.1333 139.975 33.3333 137.308 37C134.708 40.6667 130.942 43.3 126.008 44.9L141.408 72H117.008ZM103.608 31.8H112.408C114.542 31.8 116.142 31.3333 117.208 30.4C118.275 29.4 118.808 27.8667 118.808 25.8C118.808 23.9333 118.242 22.4667 117.108 21.4C116.042 20.3333 114.475 19.8 112.408 19.8H103.608V31.8Z" fill="url(#paint1_linear)"/>
<path d="M37.0996 72.7C30.4329 72.7 24.2996 71.1333 18.6996 68C13.1663 64.8667 8.76628 60.5333 5.49961 55C2.23294 49.4667 0.599609 43.2333 0.599609 36.3C0.599609 29.3667 2.23294 23.1333 5.49961 17.6C8.76628 12.0667 13.1663 7.76666 18.6996 4.7C24.2996 1.56666 30.4329 -2.86102e-06 37.0996 -2.86102e-06C43.7663 -2.86102e-06 49.8663 1.56666 55.3996 4.7C60.9329 7.76666 65.2996 12.0667 68.4996 17.6C71.7663 23.1333 73.3996 29.3667 73.3996 36.3C73.3996 43.2333 71.7663 49.4667 68.4996 55C65.2996 60.5333 60.8996 64.8667 55.2996 68C49.7663 71.1333 43.6996 72.7 37.0996 72.7ZM37.0996 52C41.4996 52 44.8996 50.6 47.2996 47.8C49.6996 44.9333 50.8996 41.1 50.8996 36.3C50.8996 31.4333 49.6996 27.6 47.2996 24.8C44.8996 21.9333 41.4996 20.5 37.0996 20.5C32.6329 20.5 29.1996 21.9333 26.7996 24.8C24.3996 27.6 23.1996 31.4333 23.1996 36.3C23.1996 41.1 24.3996 44.9333 26.7996 47.8C29.1996 50.6 32.6329 52 37.0996 52ZM117.008 72L103.708 46.6H103.608V72H81.4082V1.2H114.408C120.142 1.2 125.042 2.23333 129.108 4.3C133.175 6.3 136.208 9.06666 138.208 12.6C140.275 16.0667 141.308 20 141.308 24.4C141.308 29.1333 139.975 33.3333 137.308 37C134.708 40.6667 130.942 43.3 126.008 44.9L141.408 72H117.008ZM103.608 31.8H112.408C114.542 31.8 116.142 31.3333 117.208 30.4C118.275 29.4 118.808 27.8667 118.808 25.8C118.808 23.9333 118.242 22.4667 117.108 21.4C116.042 20.3333 114.475 19.8 112.408 19.8H103.608V31.8Z" fill="url(#paint2_linear)"/>
<defs>
<linearGradient id="paint0_linear" x1="-26.1847" y1="118.303" x2="186.075" y2="118.528" gradientUnits="userSpaceOnUse">
<stop stop-color="#784EBC"/>
<stop offset="1" stop-color="#C4C4C4" stop-opacity="0"/>
</linearGradient>
<linearGradient id="paint1_linear" x1="104.186" y1="129.555" x2="121.001" y2="-19.3599" gradientUnits="userSpaceOnUse">
<stop stop-color="#6FAEAC"/>
<stop offset="1" stop-color="white" stop-opacity="0"/>
</linearGradient>
<linearGradient id="paint2_linear" x1="252.796" y1="2.88129" x2="173.948" y2="111.515" gradientUnits="userSpaceOnUse">
<stop stop-color="#E0A800"/>
<stop offset="1" stop-color="white" stop-opacity="0"/>
</linearGradient>
</defs>
</svg>
