<svg width="19" height="24" viewBox="0 0 19 24" fill="none" xmlns="http://www.w3.org/2000/svg">
<path d="M3.38606 0.638547L5.04613 0.138526C5.80182 -0.0894592 6.61465 -0.0346488 7.33288 0.292726C8.05112 0.6201 8.62568 1.19766 8.9493 1.9176L9.98234 4.2157C10.2607 4.83478 10.3382 5.52549 10.2041 6.19089C10.0699 6.85629 9.73081 7.46299 9.23431 7.92585L7.42923 9.60892C7.40693 9.62976 7.38862 9.6545 7.37523 9.68192C7.18622 10.0679 7.47323 11.099 8.37227 12.657C9.38631 14.4131 10.1693 15.1072 10.5324 15.0001L12.9015 14.2751C13.5503 14.077 14.2448 14.0868 14.8877 14.3033C15.5307 14.5198 16.0897 14.932 16.4866 15.4822L17.9547 17.5153C18.4156 18.1536 18.6291 18.9376 18.5555 19.7215C18.4819 20.5054 18.1263 21.236 17.5547 21.7774L16.2916 22.9725C15.8524 23.3885 15.319 23.6921 14.7371 23.8574C14.1551 24.0226 13.5418 24.0446 12.9495 23.9215C9.43231 23.1895 6.28118 20.3574 3.46907 15.4872C0.655949 10.614 -0.221088 6.46379 0.908959 3.05065C1.09812 2.47923 1.42205 1.96174 1.85338 1.5419C2.2847 1.12207 2.81075 0.81222 3.38706 0.638547H3.38606ZM3.82008 2.07461C3.47428 2.17876 3.15862 2.36463 2.89979 2.61649C2.64096 2.86836 2.44656 3.17883 2.33302 3.52167C1.35898 6.46279 2.14801 10.1989 4.76812 14.7371C7.38623 19.2723 10.2243 21.8224 13.2545 22.4525C13.61 22.5264 13.9782 22.5132 14.3275 22.4139C14.6769 22.3146 14.997 22.1323 15.2606 21.8824L16.5226 20.6884C16.8305 20.3969 17.0222 20.0036 17.0619 19.5814C17.1016 19.1593 16.9867 18.7371 16.7386 18.3933L15.2706 16.3592C15.0569 16.063 14.7559 15.8411 14.4098 15.7245C14.0637 15.608 13.6898 15.6026 13.3405 15.7092L10.9654 16.4362C9.65132 16.8272 8.41527 15.7322 7.07322 13.4061C5.93617 11.438 5.54215 10.0159 6.02817 9.0229C6.12218 8.83089 6.25018 8.65788 6.40619 8.51188L8.21126 6.8288C8.47871 6.57958 8.6614 6.25285 8.73369 5.89449C8.80597 5.53613 8.76421 5.16414 8.61428 4.83072L7.58124 2.53363C7.40699 2.14587 7.09755 1.8348 6.71072 1.6585C6.32389 1.4822 5.88612 1.45272 5.47915 1.57559L3.81908 2.07561L3.82008 2.07461Z" fill="white"/>
</svg>
