<svg width="99" height="76" viewBox="0 0 99 76" fill="none" xmlns="http://www.w3.org/2000/svg">
<path d="M58.4077 75.3333V52.7723C58.4077 30.2791 67.0524 13.4091 84.3417 2.16252L99 13.3414C92.836 17.5419 88.5513 22.0135 86.1458 26.756C83.7403 31.3631 82.5376 37.5284 82.5376 45.2519H98.3235V75.3333H58.4077ZM0 75.3333V52.7723C0 29.0595 8.64465 11.5799 25.9339 0.333252L40.5923 11.5121C34.5786 15.5772 30.2938 20.252 27.738 25.5365C25.1822 30.8211 23.9043 37.3929 23.9043 45.2519H39.6902V75.3333H0Z" fill="url(#paint0_linear)"/>
<path d="M58.4077 75.3333V52.7723C58.4077 30.2791 67.0524 13.4091 84.3417 2.16252L99 13.3414C92.836 17.5419 88.5513 22.0135 86.1458 26.756C83.7403 31.3631 82.5376 37.5284 82.5376 45.2519H98.3235V75.3333H58.4077ZM0 75.3333V52.7723C0 29.0595 8.64465 11.5799 25.9339 0.333252L40.5923 11.5121C34.5786 15.5772 30.2938 20.252 27.738 25.5365C25.1822 30.8211 23.9043 37.3929 23.9043 45.2519H39.6902V75.3333H0Z" fill="url(#paint1_linear)"/>
<path d="M58.4077 75.3333V52.7723C58.4077 30.2791 67.0524 13.4091 84.3417 2.16252L99 13.3414C92.836 17.5419 88.5513 22.0135 86.1458 26.756C83.7403 31.3631 82.5376 37.5284 82.5376 45.2519H98.3235V75.3333H58.4077ZM0 75.3333V52.7723C0 29.0595 8.64465 11.5799 25.9339 0.333252L40.5923 11.5121C34.5786 15.5772 30.2938 20.252 27.738 25.5365C25.1822 30.8211 23.9043 37.3929 23.9043 45.2519H39.6902V75.3333H0Z" fill="url(#paint2_linear)"/>
<defs>
<linearGradient id="paint0_linear" x1="13.7844" y1="95.172" x2="92.1937" y2="95.2156" gradientUnits="userSpaceOnUse">
<stop stop-color="#784EBC"/>
<stop offset="1" stop-color="#C4C4C4" stop-opacity="0"/>
</linearGradient>
<linearGradient id="paint1_linear" x1="61.9438" y1="103.059" x2="83.5991" y2="1.98812" gradientUnits="userSpaceOnUse">
<stop stop-color="#6FAEAC"/>
<stop offset="1" stop-color="white" stop-opacity="0"/>
</linearGradient>
<linearGradient id="paint2_linear" x1="116.841" y1="14.2687" x2="61.5666" y2="54.4033" gradientUnits="userSpaceOnUse">
<stop stop-color="#E0A800"/>
<stop offset="1" stop-color="white" stop-opacity="0"/>
</linearGradient>
</defs>
</svg>
