<svg width="32" height="32" viewBox="0 0 32 32" fill="none" xmlns="http://www.w3.org/2000/svg">
<path d="M7.40114 31L13.8392 17.0719M17.0582 16.0012L23.5371 28.8571M1.53096 20.7919L1.21555 20.2474C1.10996 20.0646 1.0414 19.8629 1.0138 19.6536C0.986197 19.4443 1.00009 19.2316 1.05469 19.0277C1.10929 18.8238 1.20352 18.6327 1.33201 18.4652C1.46049 18.2977 1.62071 18.1572 1.80351 18.0516L7.62079 14.6987C7.74275 14.628 7.87747 14.5821 8.01722 14.5635C8.15696 14.545 8.29899 14.5542 8.43517 14.5907C8.57134 14.6271 8.69899 14.6901 8.81078 14.776C8.92258 14.8619 9.01633 14.9689 9.08666 15.0911L9.93779 16.5643C10.0797 16.8104 10.1181 17.1028 10.0445 17.3772C9.97093 17.6516 9.79139 17.8855 9.54538 18.0275L3.72943 21.3805C3.35972 21.5934 2.92064 21.6511 2.50849 21.5407C2.09634 21.4304 1.74479 21.1611 1.53096 20.7919ZM10.2867 17.1865L8.70898 14.4596C8.49604 14.0904 8.43849 13.6517 8.54901 13.24C8.65952 12.8284 8.92904 12.4775 9.29827 12.2645L17.6328 7.45978C17.7547 7.38909 17.8895 7.34316 18.0292 7.32462C18.169 7.30609 18.311 7.31531 18.4472 7.35176C18.5833 7.38822 18.711 7.45119 18.8228 7.53706C18.9346 7.62293 19.0283 7.73003 19.0987 7.8522L21.2127 11.5078C21.3546 11.7537 21.3931 12.0458 21.3197 12.32C21.2464 12.5942 21.0673 12.8281 20.8217 12.9703L12.4852 17.7744C12.3023 17.8804 12.1003 17.9493 11.8907 17.9771C11.6811 18.005 11.4682 17.9912 11.2639 17.9366C11.0597 17.8819 10.8683 17.7876 10.7006 17.6589C10.5329 17.5301 10.3922 17.3696 10.2867 17.1865ZM21.7491 12.3978L18.6346 7.01179C18.4216 6.64255 18.3641 6.20385 18.4746 5.79218C18.5851 5.38052 18.8546 5.02962 19.2239 4.81667L25.4711 1.21529C25.8408 1.00223 26.2799 0.94448 26.6922 1.0547C27.1044 1.16491 27.4561 1.4341 27.6702 1.80325L30.7848 7.18924C30.8903 7.3721 30.9588 7.57396 30.9863 7.78329C31.0138 7.99262 30.9998 8.20532 30.9451 8.40923C30.8903 8.61314 30.796 8.80427 30.6674 8.9717C30.5387 9.13914 30.3784 9.27958 30.1955 9.38503L23.9483 12.9864C23.5785 13.1996 23.1393 13.2573 22.727 13.147C22.3147 13.0366 21.963 12.7672 21.7491 12.3978Z" stroke="#373737" stroke-width="2" stroke-linecap="round" stroke-linejoin="round"/>
</svg>
