<svg width="25" height="24" viewBox="0 0 25 24" fill="none" xmlns="http://www.w3.org/2000/svg">
<path d="M12.488 3.05176e-05C5.864 3.05176e-05 0.5 5.37603 0.5 12C0.5 18.624 5.864 24 12.488 24C19.124 24 24.5 18.624 24.5 12C24.5 5.37603 19.124 3.05176e-05 12.488 3.05176e-05ZM12.5 21.6C7.196 21.6 2.9 17.304 2.9 12C2.9 6.69603 7.196 2.40003 12.5 2.40003C17.804 2.40003 22.1 6.69603 22.1 12C22.1 17.304 17.804 21.6 12.5 21.6ZM16.7 10.8C17.696 10.8 18.5 9.99603 18.5 9.00003C18.5 8.00403 17.696 7.20003 16.7 7.20003C15.704 7.20003 14.9 8.00403 14.9 9.00003C14.9 9.99603 15.704 10.8 16.7 10.8ZM8.3 10.8C9.296 10.8 10.1 9.99603 10.1 9.00003C10.1 8.00403 9.296 7.20003 8.3 7.20003C7.304 7.20003 6.5 8.00403 6.5 9.00003C6.5 9.99603 7.304 10.8 8.3 10.8ZM12.5 18.6C15.296 18.6 17.672 16.848 18.632 14.4H6.368C7.328 16.848 9.704 18.6 12.5 18.6Z" fill="#111111"/>
</svg>
