<svg width="57" height="56" viewBox="0 0 57 56" fill="none" xmlns="http://www.w3.org/2000/svg">
<path d="M28.7478 54.887C43.38 54.887 55.2417 43.0253 55.2417 28.3931C55.2417 13.7609 43.38 1.89917 28.7478 1.89917C14.1156 1.89917 2.25391 13.7609 2.25391 28.3931C2.25391 43.0253 14.1156 54.887 28.7478 54.887Z" fill="#FFD147"/>
<path d="M45.5601 34.89C45.5739 36.6636 45.2332 38.422 44.5579 40.0621C30.1706 43.5524 15.2649 40.4537 12.892 39.9123C12.2483 38.3167 11.9235 36.6105 11.9359 34.89H12.0626C12.0626 34.89 29.1108 39.0254 45.3412 34.9706L45.5601 34.89Z" fill="white"/>
<path d="M44.5576 40.0619C42.4957 44.9805 37.243 48.3902 28.7879 48.3902C20.2523 48.3902 14.9305 44.8999 12.8916 39.9121C15.2645 40.4535 30.1702 43.5521 44.5576 40.0619Z" fill="#FF875C"/>
<path d="M28.7478 54.887C43.38 54.887 55.2417 43.0253 55.2417 28.3931C55.2417 13.7609 43.38 1.89917 28.7478 1.89917C14.1156 1.89917 2.25391 13.7609 2.25391 28.3931C2.25391 43.0253 14.1156 54.887 28.7478 54.887Z" stroke="#373737" stroke-width="2" stroke-linecap="round" stroke-linejoin="round"/>
<path d="M45.5601 34.8899C45.5739 36.6635 45.2332 38.4219 44.5579 40.062C30.1706 43.5522 15.2649 40.4536 12.892 39.9122C12.2483 38.3166 11.9235 36.6104 11.9359 34.8899H12.0626C12.0626 34.8899 29.1108 39.0252 45.3412 34.9705L45.5601 34.8899Z" stroke="#373737" stroke-width="2" stroke-linecap="round" stroke-linejoin="round"/>
<path d="M44.5576 40.0617C42.4957 44.9804 37.243 48.39 28.7879 48.39C20.2523 48.39 14.9305 44.8998 12.8916 39.912C15.2645 40.4534 30.1702 43.552 44.5576 40.0617Z" stroke="#373737" stroke-width="2" stroke-linecap="round" stroke-linejoin="round"/>
<path d="M21.8363 22.6333C21.813 23.5344 21.4387 24.3908 20.7932 25.0198C20.1476 25.6489 19.2819 26.001 18.3805 26.001C17.4792 26.001 16.6134 25.6489 15.9679 25.0198C15.3224 24.3908 14.9481 23.5344 14.9248 22.6333C14.9248 20.7269 16.4741 19.1776 18.3805 19.1776C20.2869 19.1776 21.8363 20.7269 21.8363 22.6333Z" fill="#373737"/>
<path d="M42.5706 22.6333C42.5474 23.5344 42.1731 24.3908 41.5275 25.0198C40.882 25.6489 40.0163 26.001 39.1149 26.001C38.2135 26.001 37.3478 25.6489 36.7023 25.0198C36.0567 24.3908 35.6824 23.5344 35.6592 22.6333C35.6592 20.7269 37.2085 19.1776 39.1149 19.1776C41.0213 19.1776 42.5706 20.7269 42.5706 22.6333Z" fill="#373737"/>
<line x1="5.79386" y1="25.4024" x2="11.9342" y2="27.1568" stroke="#373737" stroke-width="2" stroke-linecap="round" stroke-linejoin="round"/>
<line x1="4.64201" y1="28.8581" x2="10.7823" y2="30.6125" stroke="#373737" stroke-width="2" stroke-linecap="round" stroke-linejoin="round"/>
<line x1="1" y1="-1" x2="7.38602" y2="-1" transform="matrix(-0.961524 0.274721 0.274721 0.961524 51.7861 26.0892)" stroke="#373737" stroke-width="2" stroke-linecap="round" stroke-linejoin="round"/>
<line x1="1" y1="-1" x2="7.38602" y2="-1" transform="matrix(-0.961524 0.274721 0.274721 0.961524 52.938 29.5449)" stroke="#373737" stroke-width="2" stroke-linecap="round" stroke-linejoin="round"/>
<path d="M8.80108 11.2457H48.3451L52.1945 16.8449H4.95166L8.80108 11.2457Z" fill="#373737"/>
</svg>
