<svg width="31" height="24" viewBox="0 0 31 24" fill="none" xmlns="http://www.w3.org/2000/svg">
<path d="M26.5 0H0.5V20H26.5V0ZM24.5 18H2.5V2H24.5V18Z" fill="white"/>
<path d="M28.5 5V22H5.5V24H30.5V5H28.5Z" fill="white"/>
<path d="M13.5 14.9037C15.9812 14.9037 18 12.7077 18 10.0084C18 7.30906 15.9812 5.113 13.5 5.113C11.0187 5.113 9 7.309 9 10.0084C9 12.7078 11.0187 14.9037 13.5 14.9037ZM13.5 7.113C14.8785 7.113 16 8.41187 16 10.0084C16 11.6049 14.8785 12.9037 13.5 12.9037C12.1215 12.9037 11 11.6049 11 10.0084C11 8.41187 12.1215 7.113 13.5 7.113Z" fill="white"/>
<path d="M4.5 4.5H6.5V15.5H4.5V4.5Z" fill="white"/>
<path d="M20.5 4.5H22.5V15.5H20.5V4.5Z" fill="white"/>
</svg>
