<svg width="29" height="24" viewBox="0 0 29 24" fill="none" xmlns="http://www.w3.org/2000/svg">
<path d="M18.7658 8.67502C19.1889 8.67513 19.5973 8.83061 19.9133 9.11195C20.2293 9.39329 20.431 9.78088 20.4801 10.2011L20.4922 10.4014V17.9422C20.5035 19.5164 19.8971 21.0323 18.8033 22.1645C17.7095 23.2966 16.2154 23.9548 14.6417 23.9978C13.0681 24.0407 11.5403 23.4649 10.3863 22.3941C9.23242 21.3233 8.54431 19.8427 8.46975 18.2702L8.46111 17.9422V10.4014C8.46122 9.97829 8.6167 9.56995 8.89804 9.25392C9.17938 8.93789 9.56697 8.73619 9.98723 8.68711L10.1875 8.67502H18.7658ZM18.7658 10.4014H10.1875V17.9422C10.185 19.0568 10.6166 20.1286 11.3908 20.9305C12.165 21.7323 13.221 22.2012 14.335 22.2378C15.449 22.2744 16.5335 21.8758 17.3587 21.1265C18.1839 20.3771 18.6848 19.336 18.7555 18.2236L18.7658 17.9422V10.4014ZM7.19914 8.67502C6.94794 9.10846 6.79473 9.59166 6.75028 10.0906L6.73474 10.4014H2.43607V16.858C2.43589 17.3933 2.5698 17.9201 2.82557 18.3902C3.08134 18.8604 3.45083 19.2591 3.90029 19.5497C4.34975 19.8404 4.86486 20.0138 5.39859 20.0542C5.93232 20.0945 6.46766 20.0005 6.95572 19.7808C7.09383 20.3488 7.29409 20.8926 7.55132 21.4036C6.82437 21.7089 6.03481 21.8354 5.24886 21.7725C4.46292 21.7096 3.70352 21.4592 3.03437 21.0421C2.36522 20.6251 1.80584 20.0537 1.40315 19.3759C1.00046 18.698 0.766216 17.9334 0.720058 17.1463L0.711426 16.8563V10.4014C0.711482 9.97855 0.866724 9.57043 1.14771 9.25444C1.42869 8.93846 1.81587 8.73658 2.23581 8.68711L2.4378 8.67502H7.19741H7.19914ZM21.7559 8.67502H26.5621C26.9852 8.67513 27.3936 8.83061 27.7096 9.11195C28.0256 9.39329 28.2273 9.78088 28.2764 10.2011L28.2885 10.4014V16.858C28.2886 17.6744 28.0859 18.4781 27.6987 19.1968C27.3115 19.9156 26.7518 20.5269 26.07 20.976C25.3882 21.4251 24.6055 21.6978 23.7923 21.7697C22.9791 21.8416 22.1607 21.7105 21.4106 21.388C21.6661 20.8736 21.8664 20.3298 22.0028 19.7601C22.4717 19.9789 22.9867 20.0808 23.5036 20.0572C24.0206 20.0336 24.5241 19.8852 24.9712 19.6246C25.4182 19.364 25.7955 18.999 26.0708 18.5608C26.3461 18.1226 26.5111 17.6242 26.5518 17.1084L26.5621 16.858V10.4014H22.2186L22.2082 10.1442C22.1705 9.62654 22.0159 9.12422 21.7559 8.67502ZM14.4741 0C15.494 0 16.4721 0.405149 17.1932 1.12632C17.9144 1.84749 18.3196 2.82561 18.3196 3.8455C18.3196 4.86538 17.9144 5.8435 17.1932 6.56467C16.4721 7.28584 15.494 7.69099 14.4741 7.69099C13.4542 7.69099 12.4761 7.28584 11.7549 6.56467C11.0337 5.8435 10.6286 4.86538 10.6286 3.8455C10.6286 2.82561 11.0337 1.84749 11.7549 1.12632C12.4761 0.405149 13.4542 0 14.4741 0ZM23.0835 1.08416C23.9596 1.08416 24.7999 1.4322 25.4194 2.05171C26.0389 2.67122 26.3869 3.51146 26.3869 4.38758C26.3869 5.2637 26.0389 6.10393 25.4194 6.72344C24.7999 7.34295 23.9596 7.69099 23.0835 7.69099C22.2074 7.69099 21.3671 7.34295 20.7476 6.72344C20.1281 6.10393 19.7801 5.2637 19.7801 4.38758C19.7801 3.51146 20.1281 2.67122 20.7476 2.05171C21.3671 1.4322 22.2074 1.08416 23.0835 1.08416ZM5.89055 1.08416C6.76667 1.08416 7.6069 1.4322 8.22641 2.05171C8.84592 2.67122 9.19396 3.51146 9.19396 4.38758C9.19396 5.2637 8.84592 6.10393 8.22641 6.72344C7.6069 7.34295 6.76667 7.69099 5.89055 7.69099C5.01443 7.69099 4.17419 7.34295 3.55468 6.72344C2.93517 6.10393 2.58713 5.2637 2.58713 4.38758C2.58713 3.51146 2.93517 2.67122 3.55468 2.05171C4.17419 1.4322 5.01443 1.08416 5.89055 1.08416ZM14.4741 1.72637C13.912 1.72637 13.373 1.94964 12.9756 2.34705C12.5782 2.74446 12.3549 3.28347 12.3549 3.8455C12.3549 4.40752 12.5782 4.94653 12.9756 5.34394C13.373 5.74135 13.912 5.96462 14.4741 5.96462C15.0361 5.96462 15.5751 5.74135 15.9725 5.34394C16.3699 4.94653 16.5932 4.40752 16.5932 3.8455C16.5932 3.28347 16.3699 2.74446 15.9725 2.34705C15.5751 1.94964 15.0361 1.72637 14.4741 1.72637ZM23.0835 2.81054C22.6652 2.81054 22.2641 2.97669 21.9684 3.27244C21.6726 3.56819 21.5065 3.96932 21.5065 4.38758C21.5065 4.80583 21.6726 5.20696 21.9684 5.50271C22.2641 5.79847 22.6652 5.96462 23.0835 5.96462C23.5018 5.96462 23.9029 5.79847 24.1986 5.50271C24.4944 5.20696 24.6605 4.80583 24.6605 4.38758C24.6605 3.96932 24.4944 3.56819 24.1986 3.27244C23.9029 2.97669 23.5018 2.81054 23.0835 2.81054ZM5.89055 2.81054C5.47229 2.81054 5.07116 2.97669 4.77541 3.27244C4.47966 3.56819 4.3135 3.96932 4.3135 4.38758C4.3135 4.80583 4.47966 5.20696 4.77541 5.50271C5.07116 5.79847 5.47229 5.96462 5.89055 5.96462C6.3088 5.96462 6.70993 5.79847 7.00568 5.50271C7.30143 5.20696 7.46759 4.80583 7.46759 4.38758C7.46759 3.96932 7.30143 3.56819 7.00568 3.27244C6.70993 2.97669 6.3088 2.81054 5.89055 2.81054Z" fill="white"/>
</svg>
