<svg width="15" height="16" viewBox="0 0 15 16" fill="none" xmlns="http://www.w3.org/2000/svg">
<path d="M13.4738 5.39075C13.491 5.26025 13.5 5.12975 13.5 5C13.5 3.21575 11.8927 1.784 10.1093 2.02625C9.5895 1.1015 8.5995 0.5 7.5 0.5C6.4005 0.5 5.4105 1.1015 4.89075 2.02625C3.1035 1.784 1.5 3.21575 1.5 5C1.5 5.12975 1.509 5.26025 1.52625 5.39075C0.6015 5.91125 0 6.90125 0 8C0 9.09875 0.6015 10.0887 1.52625 10.6093C1.50895 10.7388 1.50018 10.8693 1.5 11C1.5 12.7843 3.1035 14.2122 4.89075 13.9738C5.4105 14.8985 6.4005 15.5 7.5 15.5C8.5995 15.5 9.5895 14.8985 10.1093 13.9738C11.8927 14.2122 13.5 12.7843 13.5 11C13.5 10.8702 13.491 10.7397 13.4738 10.6093C14.3985 10.0887 15 9.09875 15 8C15 6.90125 14.3985 5.91125 13.4738 5.39075ZM6.71625 11.312L3.966 8.5265L5.034 7.4735L6.72675 9.188L9.972 5.9675L11.028 7.0325L6.71625 11.312Z" fill="#6FAEAC"/>
</svg>
